<svg xmlns="http://www.w3.org/2000/svg" width="25.833" height="24.683" viewBox="0 0 25.833 24.683">
  <path id="Path_1679" data-name="Path 1679" d="M118.973,50.133a3.168,3.168,0,0,0-3.246,3.063v1.687h-3.842a2.7,2.7,0,0,0-2.683,2.689V71.628a2.7,2.7,0,0,0,2.683,2.689h19.97a2.693,2.693,0,0,0,2.68-2.689V57.572a2.693,2.693,0,0,0-2.68-2.689h-3.842V53.2a3.169,3.169,0,0,0-3.246-3.063Zm0,.589h5.794a2.577,2.577,0,0,1,2.657,2.474v1.687h-1.419v-.935a2.154,2.154,0,0,0-2.232-2.052h-3.807a2.156,2.156,0,0,0-2.235,2.052v.935h-1.416V53.2a2.574,2.574,0,0,1,2.657-2.474Zm.994,1.763h3.807a1.565,1.565,0,0,1,1.643,1.463v.935h-7.095v-.935a1.566,1.566,0,0,1,1.645-1.463Zm-8.082,2.987h19.97a2.1,2.1,0,0,1,2.091,2.1v2.1l-12.077,4.576-12.077-4.578v-2.1a2.1,2.1,0,0,1,2.094-2.1ZM109.791,60.3l8.876,3.364V67.2a.3.3,0,0,0,.294.294h5.817a.3.3,0,0,0,.295-.294V63.661l8.873-3.362V71.628a2.1,2.1,0,0,1-2.091,2.1h-19.97a2.1,2.1,0,0,1-2.094-2.1Zm14.693,3.586v3.023h-5.228V63.885l2.508.951h0a.3.3,0,0,0,.209,0l2.511-.952Z" transform="translate(-108.952 -49.883)" fill="#fff" stroke="#fff" stroke-width="0.5" fill-rule="evenodd"/>
</svg>
