<svg xmlns="http://www.w3.org/2000/svg" width="67" height="67" viewBox="0 0 67 67">
  <g id="Group_12990" data-name="Group 12990" transform="translate(-338 -774)">
    <circle id="Ellipse_1412" data-name="Ellipse 1412" cx="33.5" cy="33.5" r="33.5" transform="translate(338 774)" fill="#fff3f4" opacity="0.14"/>
    <circle id="Ellipse_1414" data-name="Ellipse 1414" cx="20.5" cy="20.5" r="20.5" transform="translate(351 787)" fill="#fff3f4"/>
    <path id="noun-earning-4375474_2_" data-name="noun-earning-4375474 (2)" d="M211.476,126.418v5.191a.723.723,0,1,1-1.445,0v-3.441l-13.249,13.244a.723.723,0,1,1-1.022-1.022L209,127.141h-3.441a.723.723,0,1,1,0-1.445h5.191a.7.7,0,0,1,.276.056.721.721,0,0,1,.39.39.7.7,0,0,1,.056.276Zm-15.893,2.617a3.3,3.3,0,1,1,.97,2.332,3.3,3.3,0,0,1-.97-2.332Zm1.445,0a1.857,1.857,0,1,0,.544-1.314,1.856,1.856,0,0,0-.544,1.314Zm14.412,9.249a3.3,3.3,0,1,1-.97-2.332,3.3,3.3,0,0,1,.97,2.332Zm-1.445,0a1.857,1.857,0,1,0-.544,1.315,1.856,1.856,0,0,0,.544-1.315Z" transform="translate(168.461 674.305)"/>
  </g>
</svg>
