<svg xmlns="http://www.w3.org/2000/svg" width="24" height="24" viewBox="0 0 24 24">
  <g id="Group_11667" data-name="Group 11667" transform="translate(-12 -53)">
    <rect id="Rectangle_1573" data-name="Rectangle 1573" width="24" height="24" transform="translate(12 53)" fill="none"/>
    <path id="Icon_ionic-ios-arrow-round-back" data-name="Icon ionic-ios-arrow-round-back" d="M15.215,11.51a.919.919,0,0,1,.007,1.294l-4.267,4.281H27.215a.914.914,0,0,1,0,1.828H10.954l4.274,4.281a.925.925,0,0,1-.007,1.294.91.91,0,0,1-1.287-.007L8.142,18.646h0a1.026,1.026,0,0,1-.19-.288.872.872,0,0,1-.07-.352.916.916,0,0,1,.26-.64l5.793-5.835A.9.9,0,0,1,15.215,11.51Z" transform="translate(5.817 46.62)"/>
  </g>
</svg>
