<svg xmlns="http://www.w3.org/2000/svg" width="23.187" height="26.5" viewBox="0 0 23.187 26.5">
  <path id="Icon_metro-attachment" data-name="Icon metro-attachment" d="M19.937,10.392l-1.681-1.68-8.406,8.4a3.566,3.566,0,1,0,5.043,5.042L24.981,12.073a5.943,5.943,0,0,0-8.4-8.4L5.986,14.258l-.023.022A8.288,8.288,0,0,0,17.686,26l.021-.023h0l7.229-7.228-1.682-1.68L16.026,24.3,16,24.32a5.911,5.911,0,0,1-8.361-8.358l.023-.022v0L18.257,5.349A3.566,3.566,0,0,1,23.3,10.392L13.213,20.477a1.188,1.188,0,0,1-1.681-1.68l8.406-8.4Z" transform="translate(-3.535 -1.928)" fill="#727272"/>
</svg>
