<svg xmlns="http://www.w3.org/2000/svg" width="30" height="30" viewBox="0 0 30 30">
  <g id="Group_12875" data-name="Group 12875" transform="translate(-236 -252)">
    <g id="Group_12927" data-name="Group 12927">
      <circle id="Ellipse_63" data-name="Ellipse 63" cx="15" cy="15" r="15" transform="translate(236 252)" fill="#f6b51d"/>
      <path id="noun-update-2113782" d="M108.261,116.306a3.284,3.284,0,0,1,.6.056,4.1,4.1,0,0,1,7.946.078,3.242,3.242,0,0,1,.926-.135,3.275,3.275,0,1,1,0,6.551h-4.357v.974a.382.382,0,0,1-.763,0v-.974h-4.357a3.275,3.275,0,1,1,0-6.55ZM113.5,120.3l-.5-1-.5,1h1Zm-5.239,1.8h4.356V121.06h-.754a.382.382,0,0,1-.382-.382.377.377,0,0,1,.1-.255l1.078-2.155a.4.4,0,0,1,.683,0l1.119,2.239a.381.381,0,0,1-.341.552h-.738v1.033h4.356a2.512,2.512,0,1,0-1.059-4.788.382.382,0,0,1-.539-.3,3.335,3.335,0,0,0-6.605-.115.382.382,0,0,1-.495.3,2.512,2.512,0,1,0-.779,4.9Z" transform="translate(138.016 148.692)" fill="#fff"/>
    </g>
  </g>
</svg>
