<svg xmlns="http://www.w3.org/2000/svg" width="40" height="40" viewBox="0 0 40 40">
  <g id="Group_12471" data-name="Group 12471" transform="translate(-239 -377)">
    <circle id="Ellipse_45" data-name="Ellipse 45" cx="20" cy="20" r="20" transform="translate(239 377)" fill="#6a0030"/>
    <path id="Icon_material-call" data-name="Icon material-call" d="M14.806,10.083a10.857,10.857,0,0,1-4.723,4.723L8.506,13.229a.713.713,0,0,0-.731-.172,8.175,8.175,0,0,1-2.558.408.719.719,0,0,0-.717.717v2.5a.719.719,0,0,0,.717.717A12.182,12.182,0,0,0,17.4,5.217a.719.719,0,0,0-.717-.717H14.175a.719.719,0,0,0-.717.717,8.142,8.142,0,0,1-.408,2.558.719.719,0,0,0,.179.731Z" transform="translate(248.536 386.536)" fill="#fff"/>
  </g>
</svg>
