<svg xmlns="http://www.w3.org/2000/svg" width="358.579" height="18.561" viewBox="0 0 358.579 18.561">
  <g id="Group_12991" data-name="Group 12991" transform="translate(-36.816 -910.438)">
    <path id="Subtraction_96" data-name="Subtraction 96" d="M306.968,8h-292A17.985,17.985,0,0,1,0,0H321.937A17.984,17.984,0,0,1,306.968,8Z" transform="translate(55 921)" fill="#f6b51d" opacity="0.12"/>
    <path id="Subtraction_182" data-name="Subtraction 182" d="M11275-9510h-327a18.023,18.023,0,0,1-8.788-2.285,18.133,18.133,0,0,1-6.4-6.042A19.921,19.921,0,0,0,10940-9517h340a19.887,19.887,0,0,0,11.4-3.562,18.033,18.033,0,0,1-6.525,7.617A17.931,17.931,0,0,1,11275-9510Z" transform="translate(-10896 10431)" fill="#f6b51d" opacity="0.32"/>
  </g>
</svg>
