<svg xmlns="http://www.w3.org/2000/svg" width="30" height="29.826" viewBox="0 0 30 29.826">
  <path id="Subtraction_173" data-name="Subtraction 173" d="M8143,2883.826h0c-4.068-1.659-8.33-3.5-11.809-6.213-4.164-3.24-6.187-6.962-6.187-11.377A12.134,12.134,0,0,1,8137,2854h6a11.812,11.812,0,0,1,8.487,3.582,12.412,12.412,0,0,1,0,17.307,11.811,11.811,0,0,1-8.487,3.583v5.353Zm4.5-19.883a2.294,2.294,0,1,0,2.251,2.292A2.274,2.274,0,0,0,8147.5,2863.944Zm-7.5,0a2.294,2.294,0,1,0,2.251,2.292A2.274,2.274,0,0,0,8140,2863.944Zm-7.5,0a2.294,2.294,0,1,0,2.251,2.292A2.274,2.274,0,0,0,8132.5,2863.944Z" transform="translate(-8125 -2854)" fill="#242424"/>
</svg>
