<svg xmlns="http://www.w3.org/2000/svg" width="20" height="19.499" viewBox="0 0 20 19.499">
  <path id="Subtraction_172" data-name="Subtraction 172" d="M8137,2873.5h0a33.282,33.282,0,0,1-7.873-4.062c-2.776-2.118-4.125-4.552-4.125-7.438a8.009,8.009,0,0,1,8-8h4a8,8,0,1,1,0,16v3.5Zm3-13a1.5,1.5,0,1,0,1.5,1.5A1.5,1.5,0,0,0,8140,2860.5Zm-5,0a1.5,1.5,0,1,0,1.5,1.5A1.5,1.5,0,0,0,8135,2860.5Zm-5,0a1.5,1.5,0,1,0,1.5,1.5A1.5,1.5,0,0,0,8130,2860.5Z" transform="translate(-8125 -2854)" fill="#6a0030"/>
</svg>
