<svg id="Group_12918" data-name="Group 12918" xmlns="http://www.w3.org/2000/svg" width="19" height="19" viewBox="0 0 19 19">
  <path id="Path_6228" data-name="Path 6228" d="M4.385,6.188a.2.2,0,0,0-.2.2v9.9a.2.2,0,0,0,.2.2H6.365a.593.593,0,0,1,.594.594V19.6L9.9,16.653a.593.593,0,0,1,.42-.174H18.24a.2.2,0,0,0,.2-.2v-9.9a.2.2,0,0,0-.2-.2ZM3,6.385A1.387,1.387,0,0,1,4.385,5H18.24a1.387,1.387,0,0,1,1.385,1.385v9.9a1.387,1.387,0,0,1-1.385,1.385H10.568L7.738,20.5a1.153,1.153,0,0,1-1.967-.815V17.667H4.385A1.387,1.387,0,0,1,3,16.281Z" transform="translate(-1.813 -3.021)" fill="#727272" fill-rule="evenodd"/>
  <path id="Path_6229" data-name="Path 6229" d="M0,0H19V19H0Z" fill="none"/>
</svg>
