<svg xmlns="http://www.w3.org/2000/svg" width="78" height="78" viewBox="0 0 78 78">
  <g id="Group_12976" data-name="Group 12976" transform="translate(-175 -124)">
    <g id="Group_11531" data-name="Group 11531" transform="translate(130 -20)">
      <circle id="Ellipse_339" data-name="Ellipse 339" cx="39" cy="39" r="39" transform="translate(45 144)" fill="#12ce57"/>
    </g>
    <path id="Icon_metro-thumbs-up" data-name="Icon metro-thumbs-up" d="M23.175,12.654c-.2-.534,5.323-5.466,2.1-9.462-.753-.934-3.31,4.475-6.941,6.923-2,1.351-6.665,4.226-6.665,5.816V26.222c0,1.912,7.391,3.936,13.007,3.936,2.059,0,5.042-12.9,5.042-14.948s-6.349-2.021-6.546-2.557ZM10.168,12.8a4.458,4.458,0,0,0-4.512,4.7v7.292a4.31,4.31,0,0,0,4.512,4.544c.988,0-1.5-.86-1.5-3.4V16.345c0-2.659,2.492-3.548,1.5-3.548Z" transform="translate(196.345 145.916)" fill="#fff"/>
  </g>
</svg>
