<svg xmlns="http://www.w3.org/2000/svg" width="30" height="30" viewBox="0 0 30 30">
  <g id="Group_12876" data-name="Group 12876" transform="translate(-102 -252)">
    <g id="Group_12929" data-name="Group 12929">
      <circle id="Ellipse_62" data-name="Ellipse 62" cx="15" cy="15" r="15" transform="translate(102 252)" fill="#fc5e60"/>
      <g id="Group_1241" data-name="Group 1241" transform="translate(111 261)">
        <path id="Path_77" data-name="Path 77" d="M256.262,197.834h7.955a1.125,1.125,0,0,0,1.113-1.159,1.242,1.242,0,0,0-.133-.556l.006.011-4-7.474,0,0a1.074,1.074,0,0,0-1.456-.475,1.091,1.091,0,0,0-.466.475l0,0-4,7.474.006-.011a1.2,1.2,0,0,0,.489,1.6,1.089,1.089,0,0,0,.491.113m0,.889a1.979,1.979,0,0,1-.889-.206,2.083,2.083,0,0,1-.887-2.795l.006-.011,4-7.474,0,0a1.962,1.962,0,0,1,3.5,0l0,0,4,7.474.006.011a2.133,2.133,0,0,1,.227.953,2.014,2.014,0,0,1-2,2.049h-7.956Z" transform="translate(-254.26 -187.168)" fill="#fff"/>
        <path id="Path_78" data-name="Path 78" d="M341.317,243.3h-.311c-.311,0-.267-.268-.267-.579l-.311-3.292a.589.589,0,0,1,.578-.578h.311a.588.588,0,0,1,.578.578l-.311,3.292C341.584,243.028,341.629,243.3,341.317,243.3Z" transform="translate(-335.182 -235.699)" fill="#fff"/>
        <path id="Path_79" data-name="Path 79" d="M340.456,322.577A.6.6,0,1,0,339.7,322,.685.685,0,0,0,340.456,322.577Z" transform="translate(-334.498 -313.246)" fill="#fff"/>
      </g>
    </g>
  </g>
</svg>
