<svg xmlns="http://www.w3.org/2000/svg" width="40" height="40" viewBox="0 0 40 40">
  <g id="Group_12945" data-name="Group 12945" transform="translate(-358 -234)">
    <g id="Rectangle_1647" data-name="Rectangle 1647" transform="translate(358 234)" fill="#6a0030" stroke="#fff" stroke-width="2">
      <path d="M8,0H32a8,8,0,0,1,8,8V32a8,8,0,0,1-8,8H9a9,9,0,0,1-9-9V8A8,8,0,0,1,8,0Z" stroke="none"/>
      <path d="M8,1H32a7,7,0,0,1,7,7V32a7,7,0,0,1-7,7H9a8,8,0,0,1-8-8V8A7,7,0,0,1,8,1Z" fill="none"/>
    </g>
    <path id="Path_5951" data-name="Path 5951" d="M202.468,127.317h-4.423a3.828,3.828,0,0,0-3.769-3.2h-.711a3.828,3.828,0,0,0-3.769,3.2h-4.648a.629.629,0,0,0,0,1.257h1.562l1.1,12.472h0a.629.629,0,0,0,.626.574h10.75a.629.629,0,0,0,.626-.574l1.1-12.472h1.561a.629.629,0,1,0,0-1.257Zm-8.9-1.939h.711a2.57,2.57,0,0,1,2.487,1.939h-5.685a2.57,2.57,0,0,1,2.487-1.939Zm-4.555,14.985-.109-1.242h9.817l-.109,1.242Zm9.818-2.5H188.789l-.817-9.29h11.673Z" transform="translate(184.48 120.88)" fill="#fff"/>
  </g>
</svg>
