<svg xmlns="http://www.w3.org/2000/svg" width="78" height="78" viewBox="0 0 78 78">
  <g id="Group_11531" data-name="Group 11531" transform="translate(-45 -144)">
    <circle id="Ellipse_339" data-name="Ellipse 339" cx="39" cy="39" r="39" transform="translate(45 144)" fill="#12ce57"/>
    <path id="Vector" d="M7.469,16.343a1.92,1.92,0,0,1-1.359-.56L-.937,8.773a1.9,1.9,0,0,1,0-2.7,1.928,1.928,0,0,1,2.717,0l5.69,5.66L20.231-.941a1.928,1.928,0,0,1,2.717,0,1.9,1.9,0,0,1,0,2.7L8.826,15.785A1.92,1.92,0,0,1,7.469,16.343Z" transform="translate(72.5 175.5)" fill="#fff"/>
  </g>
</svg>
