<svg xmlns="http://www.w3.org/2000/svg" width="30" height="30" viewBox="0 0 30 30">
  <g id="Group_11883" data-name="Group 11883" transform="translate(-11 -53)">
    <rect id="Rectangle_1723" data-name="Rectangle 1723" width="30" height="30" transform="translate(11 53)" fill="none"/>
    <g id="Group_1370" data-name="Group 1370" transform="translate(-2954.838 -170.201)">
      <path id="Path_1688" data-name="Path 1688" d="M161.194,75.5h-14.4a1.075,1.075,0,1,1,0-2.137h14.4a1.075,1.075,0,1,1,0,2.137Z" transform="translate(2823.239 157.343)"/>
      <path id="Path_1689" data-name="Path 1689" d="M170.251,260.3h-23.3a1.1,1.1,0,1,1,0-2.137h23.3a1.1,1.1,0,1,1,0,2.137Z" transform="translate(2823.239 -20.401)"/>
      <path id="Path_1690" data-name="Path 1690" d="M161.194,445.1h-14.4a1.075,1.075,0,1,1,0-2.137h14.4a1.075,1.075,0,1,1,0,2.137Z" transform="translate(2823.239 -198.145)"/>
    </g>
  </g>
</svg>
