<svg xmlns="http://www.w3.org/2000/svg" width="20.67" height="12.273" viewBox="0 0 20.67 12.273">
  <g id="Group_11468" data-name="Group 11468" transform="translate(0)">
    <g id="noun-cows-2717656" transform="translate(0 0)">
      <path id="Path_1093" data-name="Path 1093" d="M109.623,107.872l.42.784-.831,3.577h-.806l.56-4.36Zm-8.687,1.135.79,3.226h.806l-.415-3.23h.736v.722a.247.247,0,0,0,.494,0V109h.635v.722a.247.247,0,0,0,.494,0V109l.972-1.18-3.419-.744-1.107,1.437Zm10.71-9.046H99.3a1.292,1.292,0,0,0-1.292,1.292v6.136h.646v-6.136a.647.647,0,0,1,.646-.646v2.927l.323,2.241-.323,1.938.323,4.521h.808v-3.876l1.4-1.824,3.93.855h4.222L110.83,109l.341,3.23h.808v-4.844l4.6,4.845h.673a.538.538,0,0,0,.538-.538v-3.1l.888-.888-2.019.007c-3.863-7.423-4.414-7.757-5.015-7.757Z" transform="translate(-98.01 -99.96)"/>
    </g>
  </g>
</svg>
