<svg xmlns="http://www.w3.org/2000/svg" width="30.497" height="24.294" viewBox="0 0 30.497 24.294">
  <path id="Path_6090" data-name="Path 6090" d="M142.533,114.95c-2.365,0-4.756.8-4.77,2.32h0v7.284c0,1.531,2.4,2.334,4.772,2.334s4.771-.8,4.771-2.334V117.27h0c-.014-1.524-2.406-2.32-4.77-2.32Zm3.621,9.6c0,.418-1.374,1.183-3.621,1.183s-3.621-.766-3.621-1.183V123.7a8.973,8.973,0,0,0,7.242,0Zm0-2.423c0,.417-1.374,1.183-3.621,1.183s-3.621-.766-3.621-1.183v-.854a8.984,8.984,0,0,0,7.242,0Zm0-2.424c0,.417-1.374,1.183-3.621,1.183s-3.621-.766-3.621-1.183v-.853a8.981,8.981,0,0,0,7.242,0Zm-3.621-1.241c-2.246,0-3.621-.765-3.621-1.182s1.375-1.184,3.621-1.184,3.621.766,3.621,1.184S144.779,118.465,142.533,118.465Zm15.248-6.031c0-1.532-2.4-2.334-4.771-2.334s-4.772.8-4.772,2.334v12.12c0,1.531,2.4,2.334,4.772,2.334s4.771-.8,4.771-2.334Zm-1.15,12.119c0,.418-1.375,1.183-3.621,1.183s-3.621-.766-3.621-1.183V123.7a8.976,8.976,0,0,0,7.242,0Zm0-2.423c0,.417-1.375,1.183-3.621,1.183s-3.621-.766-3.621-1.183v-.854a8.984,8.984,0,0,0,7.242,0Zm0-2.424c0,.417-1.375,1.183-3.621,1.183s-3.621-.766-3.621-1.183v-.853a8.98,8.98,0,0,0,7.242,0Zm0-2.423c0,.417-1.375,1.183-3.621,1.183s-3.621-.766-3.621-1.183v-.855a8.973,8.973,0,0,0,7.242,0Zm0-2.424c0,.417-1.375,1.183-3.621,1.183s-3.621-.766-3.621-1.183V114a8.981,8.981,0,0,0,7.242,0Zm-3.621-1.241c-2.246,0-3.621-.766-3.621-1.183s1.375-1.183,3.621-1.183,3.621.766,3.621,1.183S155.256,113.618,153.01,113.618Zm-20.954,6.174c-2.372,0-4.771.8-4.771,2.333v2.429c0,1.531,2.4,2.333,4.771,2.333s4.771-.8,4.771-2.333v-2.429C136.827,120.593,134.427,119.792,132.055,119.792Zm3.621,4.762c0,.417-1.374,1.182-3.621,1.182s-3.621-.766-3.621-1.182V123.7a8.971,8.971,0,0,0,7.241,0Zm-3.621-1.246c-2.246,0-3.621-.766-3.621-1.183s1.375-1.182,3.621-1.182,3.621.765,3.621,1.182S134.3,123.308,132.055,123.308Zm7.606-15.674,5.951,3.263,8.376-6.149.66,1.074,1.747-3.228-3.669.1.66,1.074-7.985,5.908-5.951-3.263-11.082,7.813.6.982Z" transform="translate(-127.284 -102.594)" fill="#fff"/>
</svg>
