<svg xmlns="http://www.w3.org/2000/svg" width="44" height="44" viewBox="0 0 44 44">
  <g id="Group_12206" data-name="Group 12206" transform="translate(-196 -236)">
    <circle id="Ellipse_1559" data-name="Ellipse 1559" cx="22" cy="22" r="22" transform="translate(196 236)" fill="#fff"/>
    <g id="vuesax_bold_camera" data-name="vuesax/bold/camera" transform="translate(-157 -69)">
      <g id="camera" transform="translate(364 316)">
        <path id="Vector" d="M15.1,3.833a1.575,1.575,0,0,1-1.39-.853l-.69-1.39A3.163,3.163,0,0,0,10.453,0H8.259A3.165,3.165,0,0,0,5.681,1.591l-.69,1.39a1.575,1.575,0,0,1-1.39.853A3.6,3.6,0,0,0,.008,7.657l.5,7.916A3.48,3.48,0,0,0,4.33,19.167H14.373A3.485,3.485,0,0,0,18.2,15.573l.5-7.916A3.6,3.6,0,0,0,15.1,3.833Zm-7.187,1.2h2.875a.719.719,0,0,1,0,1.438H7.914a.719.719,0,1,1,0-1.437ZM9.351,15.448a3.239,3.239,0,1,1,3.239-3.239A3.241,3.241,0,0,1,9.351,15.448Z" transform="translate(2.149 1.917)" fill="#6a0030"/>
        <path id="Vector-2" data-name="Vector" d="M0,0H23V23H0Z" fill="none" opacity="0"/>
      </g>
    </g>
  </g>
</svg>
