<svg xmlns="http://www.w3.org/2000/svg" width="35" height="35" viewBox="0 0 35 35">
  <g id="Group_11519" data-name="Group 11519" transform="translate(-38 -1025)">
    <circle id="Ellipse_245" data-name="Ellipse 245" cx="17.5" cy="17.5" r="17.5" transform="translate(38 1025)" fill="#f9f9f9"/>
    <g id="Group_1431" data-name="Group 1431" transform="translate(39.432 1036)">
      <path id="Path_1928" data-name="Path 1928" d="M95.7,18.952a7.567,7.567,0,0,1-.067,1c.008-.057.016-.116.023-.173a7.377,7.377,0,0,1-.509,1.865c.021-.052.044-.1.065-.157a7.47,7.47,0,0,1-.965,1.651l.1-.132A7.511,7.511,0,0,1,93.02,24.33l.132-.1a7.5,7.5,0,0,1-1.651.965l.157-.065a7.465,7.465,0,0,1-1.865.509c.057-.008.116-.016.173-.023a7.559,7.559,0,0,1-2,0c.057.008.116.016.173.023a7.377,7.377,0,0,1-1.865-.509l.157.065a7.47,7.47,0,0,1-1.651-.965l.132.1A7.511,7.511,0,0,1,83.591,23l.1.132a7.5,7.5,0,0,1-.965-1.651c.021.052.044.1.065.157a7.465,7.465,0,0,1-.509-1.865c.008.057.016.116.023.173a7.559,7.559,0,0,1,0-2c-.008.057-.016.116-.023.173a7.378,7.378,0,0,1,.509-1.865c-.021.052-.044.1-.065.157a7.47,7.47,0,0,1,.965-1.651l-.1.132a24.634,24.634,0,0,1,6.376-2.611c-.057-.008-.116-.016-.173-.023a7.378,7.378,0,0,1,1.865.509l-.157-.065a7.47,7.47,0,0,1,1.651.965l-.132-.1A7.511,7.511,0,0,1,94.348,14.9l-.1-.132a7.5,7.5,0,0,1,.965,1.651c-.021-.052-.044-.1-.065-.157a7.464,7.464,0,0,1,.509,1.865c-.008-.057-.016-.116-.023-.173a7.567,7.567,0,0,1,.067,1,.653.653,0,0,0,1.306,0,8.069,8.069,0,0,0-.382-2.454,7.95,7.95,0,0,0-1.074-2.155,8.585,8.585,0,0,0-.8-.972,8.424,8.424,0,0,0-.952-.836,7.981,7.981,0,0,0-4.539-1.612,7.99,7.99,0,0,0-4.667,1.293A7.958,7.958,0,0,0,82.81,13.8a7.762,7.762,0,0,0-1.3,2.175,7.9,7.9,0,0,0-.552,2.394,8.034,8.034,0,0,0,4.65,7.878,7.725,7.725,0,0,0,2.5.687,7.985,7.985,0,0,0,2.508-.119,7.9,7.9,0,0,0,2.276-.851,8.058,8.058,0,0,0,3.254-3.4,7.876,7.876,0,0,0,.751-2.322,8.583,8.583,0,0,0,.108-1.293.654.654,0,0,0-1.308,0Z" transform="translate(-80.938 -10.918)" fill="#6a0030"/>
      <circle id="Ellipse_252" data-name="Ellipse 252" cx="7.5" cy="7.5" r="7.5" transform="translate(0.568)" fill="#6a0030"/>
    </g>
    <g id="Group_1434" data-name="Group 1434" transform="translate(43.826 1040.392)">
      <path id="Path_1935" data-name="Path 1935" d="M230.164,154.767l-.541.541-1.307,1.307-1.577,1.577-1.362,1.362c-.222.222-.446.439-.664.664l-.009.009a.576.576,0,1,0,.815.815l.541-.541,1.307-1.307,1.577-1.577,1.362-1.362c.222-.222.446-.439.664-.664l.009-.009a.576.576,0,1,0-.815-.815Z" transform="translate(-223.939 -154)" fill="#fff"/>
      <path id="Path_1936" data-name="Path 1936" d="M210.244,140.145a1.182,1.182,0,0,1-.111.1l.117-.091a1.092,1.092,0,0,1-.227.132l.138-.058a1.167,1.167,0,0,1-.285.079l.153-.02a1.114,1.114,0,0,1-.294,0l.153.02a1.149,1.149,0,0,1-.285-.079l.138.058a1.234,1.234,0,0,1-.227-.132l.117.091a1.16,1.16,0,0,1-.206-.206l.091.117a1.091,1.091,0,0,1-.132-.227c.019.046.039.092.058.138a1.165,1.165,0,0,1-.079-.285c.007.05.014.1.02.153a1.114,1.114,0,0,1,0-.294c-.007.05-.014.1-.02.153a1.148,1.148,0,0,1,.079-.285c-.019.046-.039.092-.058.138a1.235,1.235,0,0,1,.132-.227l-.091.117a1.161,1.161,0,0,1,.206-.206l-.117.091a1.091,1.091,0,0,1,.227-.132l-.138.058a1.166,1.166,0,0,1,.285-.079l-.153.02a1.115,1.115,0,0,1,.294,0l-.153-.02a1.149,1.149,0,0,1,.285.079l-.138-.058a1.237,1.237,0,0,1,.227.132l-.117-.091a1.163,1.163,0,0,1,.206.206l-.091-.117a1.091,1.091,0,0,1,.132.227c-.019-.046-.039-.092-.058-.138a1.165,1.165,0,0,1,.079.285c-.007-.05-.014-.1-.02-.153a1.115,1.115,0,0,1,0,.294c.007-.05.014-.1.02-.153a1.148,1.148,0,0,1-.079.285c.019-.046.039-.092.058-.138a1.235,1.235,0,0,1-.132.227l.091-.117a.978.978,0,0,1-.1.109.576.576,0,0,0,.815.815,1.643,1.643,0,0,0,.455-.858,1.762,1.762,0,0,0,.013-.543,1.738,1.738,0,0,0-.156-.518,1.655,1.655,0,0,0-1.6-.917,1.6,1.6,0,0,0-.478.105,1.87,1.87,0,0,0-.521.314,1.612,1.612,0,0,0-.5.825,1.64,1.64,0,0,0,.039.956,1.872,1.872,0,0,0,.3.527,1.61,1.61,0,0,0,.373.333,1.591,1.591,0,0,0,1.008.259,1.88,1.88,0,0,0,.625-.167,1.583,1.583,0,0,0,.445-.315.582.582,0,0,0,0-.815.591.591,0,0,0-.816,0Z" transform="translate(-208.219 -138.117)" fill="#fff"/>
      <path id="Path_1937" data-name="Path 1937" d="M367.584,297.315a1.187,1.187,0,0,1-.111.1l.117-.091a1.094,1.094,0,0,1-.228.133l.138-.058a1.165,1.165,0,0,1-.285.079l.153-.02a1.116,1.116,0,0,1-.294,0l.153.02a1.148,1.148,0,0,1-.285-.079l.138.058a1.239,1.239,0,0,1-.228-.133l.117.091a1.164,1.164,0,0,1-.206-.206l.091.117a1.092,1.092,0,0,1-.132-.228c.019.046.039.092.058.138a1.167,1.167,0,0,1-.079-.285c.007.05.014.1.02.153a1.114,1.114,0,0,1,0-.294c-.007.05-.014.1-.02.153a1.149,1.149,0,0,1,.079-.285c-.019.046-.039.092-.058.138a1.236,1.236,0,0,1,.132-.228l-.091.117a1.16,1.16,0,0,1,.206-.206l-.117.091a1.092,1.092,0,0,1,.228-.132l-.138.058a1.168,1.168,0,0,1,.285-.079l-.153.02a1.114,1.114,0,0,1,.294,0l-.153-.02a1.15,1.15,0,0,1,.285.079l-.138-.058a1.236,1.236,0,0,1,.228.132l-.117-.091a1.159,1.159,0,0,1,.206.206l-.091-.117a1.093,1.093,0,0,1,.133.228c-.019-.046-.039-.092-.058-.138a1.168,1.168,0,0,1,.079.285c-.007-.05-.014-.1-.02-.153a1.114,1.114,0,0,1,0,.294c.007-.05.014-.1.02-.153a1.15,1.15,0,0,1-.079.285c.019-.046.039-.092.058-.138a1.234,1.234,0,0,1-.133.228l.091-.117a.974.974,0,0,1-.1.109.576.576,0,0,0,.815.815,1.643,1.643,0,0,0,.455-.858,1.762,1.762,0,0,0,.013-.543,1.74,1.74,0,0,0-.155-.518,1.655,1.655,0,0,0-1.6-.917,1.6,1.6,0,0,0-.478.105,1.87,1.87,0,0,0-.521.314,1.612,1.612,0,0,0-.5.825,1.64,1.64,0,0,0,.039.956,1.871,1.871,0,0,0,.3.527,1.61,1.61,0,0,0,.373.333,1.592,1.592,0,0,0,1.008.259,1.879,1.879,0,0,0,.625-.167,1.583,1.583,0,0,0,.445-.315.582.582,0,0,0,0-.815.591.591,0,0,0-.816,0Z" transform="translate(-361.079 -290.81)" fill="#fff"/>
    </g>
  </g>
</svg>
