<svg xmlns="http://www.w3.org/2000/svg" width="35" height="35" viewBox="0 0 35 35">
  <g id="Group_11954" data-name="Group 11954" transform="translate(-170 -861)">
    <g id="Group_11517" data-name="Group 11517" transform="translate(132 -75)">
      <circle id="Ellipse_243" data-name="Ellipse 243" cx="17.5" cy="17.5" r="17.5" transform="translate(38 936)" fill="#f9f9f9"/>
    </g>
    <g id="noun-milk-5661104" transform="translate(28.222 831.635)">
      <path id="Path_6045" data-name="Path 6045" d="M206.416,180.181h-10.5a3.149,3.149,0,0,1,.531-1.254l.612-.855a3.593,3.593,0,0,0,.25-.413l0,0s0,0,0-.006a3.464,3.464,0,0,0,.25-.6h7.2a3.51,3.51,0,0,0,.25.6s0,0,0,.006l0,0a3.609,3.609,0,0,0,.25.413l.612.855a3.158,3.158,0,0,1,.531,1.254Z" transform="translate(-51.452 -131.714)" fill="#6a0030"/>
      <path id="Path_6046" data-name="Path 6046" d="M225.05,41.564a.877.877,0,0,1,.876-.876h6.76a.876.876,0,1,1,0,1.751h-6.76A.877.877,0,0,1,225.05,41.564Z" transform="translate(-79.589 0)" fill="#6a0030"/>
      <path id="Path_6047" data-name="Path 6047" d="M253.914,103.48h.06v1.463a3.584,3.584,0,0,0,.067.655h-7.014a3.574,3.574,0,0,0,.067-.655V103.48Z" transform="translate(-100.817 -60.653)" fill="#6a0030"/>
      <path id="Path_6048" data-name="Path 6048" d="M142.959,157.83a.692.692,0,0,1-.187-.959.72.72,0,0,1,.965-.192l1.706,1.148c-.048.081-.091.164-.146.241l-.612.855c-.011.015-.018.033-.029.049Z" transform="translate(0 -111.935)" fill="#6a0030"/>
      <path id="Path_6049" data-name="Path 6049" d="M477.934,157.831l-1.7,1.142c-.011-.015-.018-.033-.03-.049l-.612-.855c-.055-.077-.1-.16-.146-.241l1.706-1.149a.721.721,0,0,1,.964.192.692.692,0,0,1-.186.96Z" transform="translate(-321.46 -111.936)" fill="#6a0030"/>
      <path id="Path_6050" data-name="Path 6050" d="M204.729,280.47H194.142c0,.067-.015.134-.015.2v6.718a1.217,1.217,0,0,0,1.216,1.216h8.186a1.217,1.217,0,0,0,1.216-1.216v-6.718c0-.068-.011-.134-.015-.2Zm-3.321,5.062a2,2,0,0,1-3.945,0c-.188-1.333,1.045-2.88,1.585-3.483a.536.536,0,0,1,.775,0C200.363,282.652,201.6,284.2,201.408,285.532Z" transform="translate(-49.719 -231.615)" fill="#6a0030"/>
      <path id="Path_6051" data-name="Path 6051" d="M304.475,333.08a.13.13,0,0,0-.1.045c-.5.563-1.656,2-1.49,3.17a1.616,1.616,0,0,0,3.177,0c.166-1.172-.986-2.607-1.49-3.17a.129.129,0,0,0-.1-.045Z" transform="translate(-154.759 -282.433)" fill="#6a0030"/>
    </g>
  </g>
</svg>
