
<svg xmlns="http://www.w3.org/2000/svg" width="20.184" height="20.194" viewBox="0 0 20.184 20.194">
  <g id="Group_12524" data-name="Group 12524" transform="translate(0 0)">
    <path id="Path_5943" data-name="Path 5943" d="M238.4,180.062a10.1,10.1,0,1,0-7.14-17.236,10.129,10.129,0,0,0-1.783,11.869l-1.006,3.752a1.19,1.19,0,0,0,.305,1.141,1.178,1.178,0,0,0,1.142.307l3.753-1.007a10.1,10.1,0,0,0,4.729,1.173Z" transform="translate(-228.304 -159.868)" fill="#fff"/>
    <path id="Path_6113" data-name="Path 6113" d="M315.792,222.305a4.028,4.028,0,0,0-2.372.725.925.925,0,0,0,.625,1.643c.013,0,.026,0,.038-.005a.634.634,0,0,0,.18-.033.885.885,0,0,0,.293-.142,2.8,2.8,0,0,1,1.133-.319c.718-.031,1.055.25,1.075.744.036.835-1.91,2-2.015,3.656a.894.894,0,0,0,.234.528,2.276,2.276,0,0,0,.268.2.887.887,0,0,0,.434.095.9.9,0,0,0,.806-.589.718.718,0,0,0,.024-.1c.243-1.33,2.533-1.9,2.442-4.026-.066-1.551-1.277-2.459-3.166-2.379Z" transform="translate(-305.806 -217.122)" fill="#6a0030"/>
    <path id="Path_6114" data-name="Path 6114" d="M333.935,319.687a.936.936,0,1,1-.936-.936.936.936,0,0,1,.936.936" transform="translate(-323.216 -305.574)" fill="#6a0030"/>
  </g>
</svg>
