<svg xmlns="http://www.w3.org/2000/svg" width="35" height="35" viewBox="0 0 35 35">
  <g id="Group_11516" data-name="Group 11516" transform="translate(-243 -840)">
    <circle id="Ellipse_242" data-name="Ellipse 242" cx="17.5" cy="17.5" r="17.5" transform="translate(243 840)" fill="#f9f9f9"/>
    <path id="Path_1881" data-name="Path 1881" d="M127.32,33.017c.01.114.018.228.018.344h0a3.787,3.787,0,1,1-7.573,0c0-.116.007-.23.018-.344Zm2.243-1.186a.684.684,0,0,0-.294-.774L124.1,27.795h0a1.039,1.039,0,0,0-1.1,0l-5.167,3.263h0a.689.689,0,0,0,.368,1.271h10.7a.683.683,0,0,0,.662-.5Zm-1.146,4.925a6.852,6.852,0,0,0-1.143-.917,4.47,4.47,0,0,1-7.447,0,6.872,6.872,0,0,0-3.161,5.785,1.034,1.034,0,0,0,1.033,1.033h11.7a1.034,1.034,0,0,0,1.033-1.033,6.826,6.826,0,0,0-2.018-4.867Z" transform="translate(130.064 824.162)" fill="#6a0030"/>
  </g>
</svg>
