<svg xmlns="http://www.w3.org/2000/svg" width="32" height="32" viewBox="0 0 32 32">
  <g id="Group_12947" data-name="Group 12947" transform="translate(-364 -128)">
    <circle id="Ellipse_1561" data-name="Ellipse 1561" cx="16" cy="16" r="16" transform="translate(364 128)" fill="#fff3f4"/>
    <g id="Group_1484" data-name="Group 1484" transform="translate(375 138)">
      <path id="Path_2934" data-name="Path 2934" d="M162.955,63.647l-.08-.1A7.56,7.56,0,0,1,161.4,60.1a3.07,3.07,0,0,0-2.421-2.789,1.033,1.033,0,0,0,.015-.167,1.121,1.121,0,0,0-.6-.98,1.268,1.268,0,0,0-1.2,0,1.121,1.121,0,0,0-.6.98,1.035,1.035,0,0,0,.015.167,3.071,3.071,0,0,0-2.421,2.789,7.586,7.586,0,0,1-1.479,3.45l-.08.1c-.37.494.062,1.131.768,1.131h8.8c.713,0,1.138-.638.768-1.136Z" transform="translate(-152.484 -56.01)"/>
      <path id="Path_2935" data-name="Path 2935" d="M274.135,428.137a2.536,2.536,0,0,0,2.536-2.536H271.6a2.536,2.536,0,0,0,2.536,2.536Z" transform="translate(-268.832 -416.109)"/>
    </g>
  </g>
</svg>
