<svg xmlns="http://www.w3.org/2000/svg" width="428.001" height="496" viewBox="0 0 428.001 496">
  <g id="Group_12951" data-name="Group 12951" transform="translate(0 0)">
    <g id="Group_12152" data-name="Group 12152" transform="translate(17751.018 2029.627)">
      <path id="Path_6111" data-name="Path 6111" d="M0,0H427.984V446.787L0,451.667Z" transform="translate(-17751.002 -2029.627)" fill="#f6b51d"/>
      <path id="Path_6097" data-name="Path 6097" d="M0,360H427.982v60.888s4.666,10.223-141.328,36.845S0,427.685,0,427.685Z" transform="translate(-17751.018 -1998.474)" fill="#ffd500"/>
      <path id="Path_6098" data-name="Path 6098" d="M0,250H427.984V396.071s-94.663,8.045-198.659,31.645S0,396.071,0,396.071Z" transform="translate(-17751.018 -1978.875)" fill="#f6b51d"/>
    </g>
    <path id="Subtraction_7" data-name="Subtraction 7" d="M324.186,486a223.411,223.411,0,0,1-43.972-4.358A218.848,218.848,0,0,1,169.9,423.166a216.909,216.909,0,0,1-26.643-31.75,213.44,213.44,0,0,1-20.117-36.441,211.473,211.473,0,0,1,20.705-204.3A218.266,218.266,0,0,1,241.214,73H370V481.263A223.215,223.215,0,0,1,324.186,486Z" transform="translate(58.001 -73)" fill="#fff" opacity="0.15"/>
    <path id="Subtraction_8" data-name="Subtraction 8" d="M120,138a51.566,51.566,0,0,1-21.8-4.813,55.823,55.823,0,0,1-17.8-13.125,61.648,61.648,0,0,1-12-19.467A65.816,65.816,0,0,1,64,76.756c0-.252,0-.506,0-.757H176c0,.253,0,.506,0,.757a65.816,65.816,0,0,1-4.4,23.839,61.648,61.648,0,0,1-12,19.467,55.824,55.824,0,0,1-17.8,13.125A51.566,51.566,0,0,1,120,138Z" transform="translate(21 -76)" fill="#fff" opacity="0.4"/>
  </g>
</svg>
