<svg xmlns="http://www.w3.org/2000/svg" width="24" height="17.58" viewBox="0 0 24 17.58">
  <g id="noun-order-1319481_1_" data-name="noun-order-1319481 (1)" transform="translate(0)">
    <path id="Path_1691" data-name="Path 1691" d="M309.2,157.6v.1a3.2,3.2,0,0,1,0,6.191v9.69a.8.8,0,1,1-1.6,0v-9.69a3.2,3.2,0,0,1,0-6.191v-.1a.8.8,0,0,1,1.6,0Zm-2.4,3.2a1.6,1.6,0,1,0,1.6-1.6A1.6,1.6,0,0,0,306.8,160.8Z" transform="translate(-296.396 -156.801)"/>
    <path id="Path_1692" data-name="Path 1692" d="M202.8,167.29a3.2,3.2,0,0,1,0,6.191v.1a.8.8,0,0,1-1.6,0v-.1a3.2,3.2,0,0,1,0-6.191V157.6a.8.8,0,0,1,1.6,0Zm-2.4,3.1a1.6,1.6,0,1,0,1.6-1.6A1.6,1.6,0,0,0,200.4,170.385Z" transform="translate(-198.8 -156.801)"/>
    <path id="Path_1693" data-name="Path 1693" d="M415.6,163.69a3.2,3.2,0,0,1,0,6.191v3.7a.8.8,0,0,1-1.6,0v-3.7a3.2,3.2,0,0,1,0-6.191V157.6a.8.8,0,0,1,1.6,0Zm-2.4,3.1a1.6,1.6,0,1,0,1.6-1.6A1.6,1.6,0,0,0,413.2,166.786Z" transform="translate(-393.993 -156.797)"/>
  </g>
</svg>
