<svg xmlns="http://www.w3.org/2000/svg" width="32" height="32" viewBox="0 0 32 32">
  <g id="Group_13040" data-name="Group 13040" transform="translate(10692 5203)">
    <path id="Path_6257" data-name="Path 6257" d="M25.945,23.04a2.52,2.52,0,1,0-2.52-2.52A2.52,2.52,0,0,0,25.945,23.04Z" transform="translate(-10705.113 -5214.567)" fill="#242424"/>
    <path id="Path_6258" data-name="Path 6258" d="M38.7,27.992a1.614,1.614,0,1,0-1.614-1.614A1.614,1.614,0,0,0,38.7,27.992Z" transform="translate(-10709.229 -5216.619)" fill="#242424"/>
    <path id="Path_6259" data-name="Path 6259" d="M25,9A16,16,0,1,0,41,25,16,16,0,0,0,25,9Zm5.384,9.575a3.236,3.236,0,1,1-3.236,3.236A3.236,3.236,0,0,1,30.384,18.575ZM21.915,13.87a4.271,4.271,0,1,1-4.271,4.271,4.271,4.271,0,0,1,4.271-4.271ZM34.739,33.408a.7.7,0,0,1-.7-.7A3.817,3.817,0,0,0,30.5,28.678a3.2,3.2,0,0,0-1.7.5,8.922,8.922,0,0,1,.7,3.478.7.7,0,0,1-1.391,0c0-3.787-2.727-6.867-6.079-6.867s-6.079,3.084-6.079,6.871a.7.7,0,1,1-1.391,0c0-4.554,3.351-8.259,7.471-8.259a7.29,7.29,0,0,1,6.128,3.548A4.575,4.575,0,0,1,30.5,27.29a5.2,5.2,0,0,1,4.93,5.426A.7.7,0,0,1,34.739,33.408Z" transform="translate(-10701 -5212)" fill="#242424"/>
  </g>
</svg>
