<svg xmlns="http://www.w3.org/2000/svg" width="20.129" height="13.404" viewBox="0 0 20.129 13.404">
  <path id="Path_2081" data-name="Path 2081" d="M105.953,141.611c.174.007.5.016.714.02l.394.009-1.875.94.172.1a7.411,7.411,0,0,1,2.819,2.814l.1.172-.078.116a1.676,1.676,0,0,1-.367.385,1.835,1.835,0,0,1-1.206.264c-.217-.013-.421-.038-.758-.087a3.442,3.442,0,0,0-1.331-.04,1.3,1.3,0,0,0-.392.19c-.1.076-.725.812-1.112,1.3a10.5,10.5,0,0,0-1.765,2.937,5.717,5.717,0,0,0-.315,1.345,6.808,6.808,0,0,0,.007,1.15,6.253,6.253,0,0,0,.392,1.537,1.166,1.166,0,0,1,.058.163s-.056.018-.119.036a1,1,0,0,1-.307.031.766.766,0,0,1-.445-.094,1.2,1.2,0,0,1-.34-.327,3.169,3.169,0,0,1-.385-1.3c-.04-.336-.063-.66-.092-1.391-.016-.389-.054-.933-.076-1.1a3.056,3.056,0,0,0-.4-1.257,1.8,1.8,0,0,0-.244-.266,1,1,0,0,0,.072.166,4.784,4.784,0,0,1,.459,1.6l.009.132-.076.1a4.069,4.069,0,0,0-.763,1.669,3.353,3.353,0,0,0-.076.812,3.7,3.7,0,0,0,.02.5,4.441,4.441,0,0,0,.114.566.9.9,0,0,1,.031.136,1.4,1.4,0,0,1-.315.052c-.253.022-.846-.036-.7-1.23a13.8,13.8,0,0,0,.221-2.175,1.912,1.912,0,0,0-.19-1.038c-.087-.132-.15-.166-.4-.219-.067-.013-.333-.083-.591-.152a8.822,8.822,0,0,0-1.935-.4.833.833,0,0,0-.4.042,3.176,3.176,0,0,0-.532.857,3.93,3.93,0,0,0-.34,1.635,3.442,3.442,0,0,0,.054.693,3.776,3.776,0,0,0,.376,1.143,4.064,4.064,0,0,0,.492.756l.029.036-.105.025c-.74.172-1.36-.318-1.875-1.483a15.5,15.5,0,0,1-.622-1.785c-.116-.378-.228-.732-.246-.785l-.036-.094.206-.206a3.574,3.574,0,0,0,.593-.756,5.263,5.263,0,0,0,.64-1.767c.016-.092.009-.13-.009-.056a9.625,9.625,0,0,1-.436,1.027,6.321,6.321,0,0,1-1.239,1.736,3.757,3.757,0,0,0-.655.855,3.917,3.917,0,0,0-.474,1.49,5.014,5.014,0,0,0,0,.819,3.79,3.79,0,0,0,.2.884.523.523,0,0,1,.031.1,1.223,1.223,0,0,1-.119.034,1.273,1.273,0,0,1-.508.022c-.492-.11-.725-.658-.725-1.711a13.63,13.63,0,0,1,.1-1.49,9.635,9.635,0,0,0,.076-1.02,6.976,6.976,0,0,0-.186-1.409A11.633,11.633,0,0,1,89,147.993a10.9,10.9,0,0,1,.013-1.121l.013-.141L88.9,146.6a2.287,2.287,0,0,1-.754-1.734c.067-.725.537-1.112,1.508-1.237a8.526,8.526,0,0,1,1.512-.013l.5.029c.264.016,3.542.016,4.609,0,2.526-.036,4.314-.13,6.128-.32.345-.036.763-.085.794-.092s.025-.009-.018-.107a1.506,1.506,0,0,1-.145-.676,1.379,1.379,0,0,1,.083-.51c.054-.163.054-.163.092-.1a2.812,2.812,0,0,0,.246.351c.11.121.208.172.3.15.072-.018.141-.083.286-.268.219-.277.374-.394.562-.425a8.438,8.438,0,0,1,1.343-.041Zm-16.431,2.754a.748.748,0,0,0-.266.394,2.187,2.187,0,0,0-.1.781,1,1,0,0,0,.125.409,5.975,5.975,0,0,0,.982,1.3l.434.49c.468.539.649.839.649,1.081a.168.168,0,0,0,.036.132.214.214,0,0,0,.06.056c.078.025.119-.217.067-.421a2.041,2.041,0,0,0-.244-.5,9.846,9.846,0,0,0-.951-1.159A4.229,4.229,0,0,1,89.4,145.7a2.08,2.08,0,0,1,0-.776,1.812,1.812,0,0,1,.213-.541.2.2,0,0,0,.025-.042c0-.009-.069,0-.109.025Z" transform="translate(-88.144 -141.603)"/>
</svg>
