<svg id="Group_11470" data-name="Group 11470" xmlns="http://www.w3.org/2000/svg" width="19.818" height="14.666" viewBox="0 0 19.818 14.666">
  <g id="noun-cows-2717656" transform="translate(0 0)">
    <path id="Path_1093" data-name="Path 1093" d="M106.468,105l.306.571-.605,2.6h-.587l.408-3.176Zm-6.327.826.575,2.35h.587l-.3-2.352h.536v.526a.18.18,0,0,0,.36,0v-.526h.462v.526a.18.18,0,0,0,.36,0v-.531l.708-.859-2.49-.542-.806,1.046Zm7.8-6.588h-8.99a.941.941,0,0,0-.941.941v4.469h.471V100.18a.471.471,0,0,1,.47-.47v2.132l.235,1.632-.235,1.411.235,3.293h.588v-2.823l1.019-1.328,2.862.623h3.075l.617,1.177.248,2.352h.588v-3.528l3.352,3.528h.49a.392.392,0,0,0,.392-.392v-2.254l.647-.647-1.47,0-2.611-5.018a1.175,1.175,0,0,0-1.042-.632Zm9.764-2.5-1.289-1.914a.385.385,0,0,0-.441-.147l-.129-.29a.359.359,0,0,1,.2-.48l1-.392h-1.313a.684.684,0,0,0-.628.954l.149.346-.088.015-.4-.253a.779.779,0,0,0-.417-.121h-.479l.525.5-1.347.227h-9.334a.942.942,0,0,0-.941.941v2.761h.471V96.125a.471.471,0,0,1,.47-.47v1.661l.226,1.57h4a1.523,1.523,0,0,1,1.355.822l.216.416h.992l-.2,1.53.549,1.056.531-2.287.428.879.248,2.352h.588V100.1a1.777,1.777,0,0,0,1.255-.826l1.218-1.978.941.235h.759l.272.072a.555.555,0,0,0,.608-.874Z" transform="translate(-98.01 -93.511)"/>
  </g>
</svg>
