<svg xmlns="http://www.w3.org/2000/svg" width="25.071" height="25.071" viewBox="0 0 25.071 25.071">
  <path id="Path_1675" data-name="Path 1675" d="M96.432,18.733a5.9,5.9,0,0,1,7.22,0l6.686,5.185a5.761,5.761,0,0,1,2.24,4.552v8.317a5.817,5.817,0,0,1-5.85,5.785H104.22a.836.836,0,0,1-.836-.836V35.051a3.343,3.343,0,1,0-6.686,0v6.686a.836.836,0,0,1-.836.836H93.356a5.818,5.818,0,0,1-5.85-5.785V28.47a5.761,5.761,0,0,1,2.24-4.552Z" transform="translate(-87.506 -17.5)" fill="#f6b51d" fill-rule="evenodd"/>
</svg>
