<svg id="Group_12845" data-name="Group 12845" xmlns="http://www.w3.org/2000/svg" width="35" height="35" viewBox="0 0 35 35">
  <g id="Group_12254" data-name="Group 12254">
    <g id="Group_11517" data-name="Group 11517">
      <circle id="Ellipse_243" data-name="Ellipse 243" cx="17.5" cy="17.5" r="17.5" fill="#f9f9f9"/>
    </g>
  </g>
  <path id="Path_6069" data-name="Path 6069" d="M158.016,0A7.117,7.117,0,0,0,150.908,7.1a6.913,6.913,0,0,0,.232,1.8,9.809,9.809,0,0,1,2.675-.282,9.012,9.012,0,0,1,6.189,2.6,7.336,7.336,0,0,1,.737.9l3.386-1.394a7.029,7.029,0,0,0,1-3.624A7.116,7.116,0,0,0,158.016,0Zm-.645,8.339-2.395-2.395.849-.849,1.546,1.546,2.855-2.855.849.849Z" transform="translate(-148.027 5.426)" fill="#6a0030"/>
  <path id="Path_6070" data-name="Path 6070" d="M90.221,278.875a2.022,2.022,0,0,1-1.133,1.247l-11.022,4.713-.244-.116c-4.963-2.357-5.628-2.713-5.779-2.829l.863-.879c.677.352,3.356,1.638,5.186,2.507l10.526-4.5h0a.822.822,0,0,0-.637-1.516l-8.015,3.3-3.83-1.952.545-1.069,3.34,1.7,1.388-.573h0a4.806,4.806,0,0,0-.843-1.2,6.978,6.978,0,0,0-9.112-.385l-1.135-.561a1.042,1.042,0,0,1,.218-.236,8.233,8.233,0,0,1,10.894.346,6.017,6.017,0,0,1,1.091,1.578l5-2.058a2.023,2.023,0,0,1,2.7,2.485Z" transform="translate(-70.316 -259.391)" fill="#6a0030"/>
</svg>
