<svg xmlns="http://www.w3.org/2000/svg" width="18" height="18" viewBox="0 0 18 18">
  <g id="Group_11424" data-name="Group 11424" transform="translate(-744 -138)">
    <circle id="Ellipse_235" data-name="Ellipse 235" cx="9" cy="9" r="9" transform="translate(744 138)" fill="#999"/>
    <g id="Group_11728" data-name="Group 11728" transform="translate(-83.391 122)">
      <path id="Path_5946" data-name="Path 5946" d="M111.669,6.42a.332.332,0,0,0-.3-.318,7.721,7.721,0,0,1-1.633-.38,12.868,12.868,0,0,1-1.766-.777.343.343,0,0,0-.344,0,11.706,11.706,0,0,1-1.757.768,8.446,8.446,0,0,1-1.633.38.348.348,0,0,0-.309.318,8.065,8.065,0,0,0,1.518,5.279,6.717,6.717,0,0,0,2.181,1.819.278.278,0,0,0,.177.044.475.475,0,0,0,.185-.044,6.831,6.831,0,0,0,2.172-1.819,8.04,8.04,0,0,0,1.51-5.271Zm-2.084,4.909a6.173,6.173,0,0,1-1.783,1.536,6.059,6.059,0,0,1-1.783-1.536,7.365,7.365,0,0,1-1.386-4.617,9.125,9.125,0,0,0,1.5-.38,13.328,13.328,0,0,0,1.669-.715,13.908,13.908,0,0,0,1.669.715,9.587,9.587,0,0,0,1.5.38,7.313,7.313,0,0,1-1.386,4.617Z" transform="translate(728.469 16.1)" fill="#fff"/>
      <path id="Path_5947" data-name="Path 5947" d="M322.342,352.131a.45.45,0,1,1-.45-.45.45.45,0,0,1,.45.45" transform="translate(514.379 -325.214)" fill="#fff"/>
      <path id="Path_5948" data-name="Path 5948" d="M307.836,151.2h-.724a.32.32,0,0,0-.229.1.338.338,0,0,0-.088.256l.344,2.136a.33.33,0,0,0,.318.327h.026a.327.327,0,0,0,.318-.309l.353-2.136a.327.327,0,0,0-.088-.256A.28.28,0,0,0,307.836,151.2Z" transform="translate(528.797 -127.893)" fill="#fff"/>
    </g>
  </g>
</svg>
