<svg xmlns="http://www.w3.org/2000/svg" width="40" height="40" viewBox="0 0 40 40">
  <g id="Group_12946" data-name="Group 12946" transform="translate(-307 -234)">
    <g id="Rectangle_1648" data-name="Rectangle 1648" transform="translate(307 234)" fill="none" stroke="#fff" stroke-width="2">
      <path d="M8,0H32a8,8,0,0,1,8,8V32a8,8,0,0,1-8,8H9a9,9,0,0,1-9-9V8A8,8,0,0,1,8,0Z" stroke="none"/>
      <path d="M8,1H32a7,7,0,0,1,7,7V32a7,7,0,0,1-7,7H9a8,8,0,0,1-8-8V8A7,7,0,0,1,8,1Z" fill="none"/>
    </g>
    <line id="Line_313" data-name="Line 313" x2="12" transform="translate(321.5 254.5)" fill="none" stroke="#fff" stroke-linecap="round" stroke-width="2"/>
  </g>
</svg>
