<svg xmlns="http://www.w3.org/2000/svg" width="25.071" height="25.071" viewBox="0 0 25.071 25.071">
  <g id="Path_1675" data-name="Path 1675" transform="translate(-87.506 -17.5)" fill="none" fill-rule="evenodd">
    <path d="M96.432,18.733a5.9,5.9,0,0,1,7.22,0l6.686,5.185a5.761,5.761,0,0,1,2.24,4.552v8.317a5.817,5.817,0,0,1-5.85,5.785H104.22a.836.836,0,0,1-.836-.836V35.051a3.343,3.343,0,1,0-6.686,0v6.686a.836.836,0,0,1-.836.836H93.356a5.818,5.818,0,0,1-5.85-5.785V28.47a5.761,5.761,0,0,1,2.24-4.552Z" stroke="none"/>
    <path d="M 100.0414428710938 18.50049209594727 C 98.95941925048828 18.50049209594727 97.89504241943359 18.86382293701172 97.04436492919922 19.52358245849609 L 90.35874938964844 24.7083625793457 C 89.18128967285156 25.62137222290039 88.50597381591797 26.99240112304688 88.50597381591797 28.46990203857422 L 88.50597381591797 36.78737258911133 C 88.50597381591797 39.42557525634766 90.68166351318359 41.57190322875977 93.35594940185547 41.57190322875977 L 95.69878387451172 41.57190322875977 L 95.69878387451172 35.05052185058594 C 95.69878387451172 32.6558723449707 97.64697265625 30.70768356323242 100.0416259765625 30.70768356323242 C 102.4362640380859 30.70768356323242 104.3844528198242 32.6558723449707 104.3844528198242 35.05052185058594 L 104.3844528198242 41.57190322875977 L 106.727294921875 41.57190322875977 C 109.4015731811523 41.57190322875977 111.577262878418 39.42557525634766 111.577262878418 36.78737258911133 L 111.577262878418 28.46990203857422 C 111.577262878418 26.99245452880859 110.9019546508789 25.62141418457031 109.7244567871094 24.70832443237305 L 103.0388031005859 19.52360153198242 C 102.18798828125 18.86384201049805 101.1234970092773 18.50049209594727 100.0414428710938 18.50049209594727 M 100.0414505004883 17.50049591064453 C 101.3165435791016 17.50049591064453 102.591682434082 17.91145324707031 103.6515960693359 18.73336410522461 L 110.337272644043 23.9181022644043 C 111.7493896484375 25.01312255859375 112.577262878418 26.69051361083984 112.577262878418 28.46990203857422 L 112.577262878418 36.78737258911133 C 112.577262878418 39.99253082275391 109.9477996826172 42.57190322875977 106.727294921875 42.57190322875977 L 104.2201690673828 42.57190322875977 C 103.7586669921875 42.57190322875977 103.3844528198242 42.19770050048828 103.3844528198242 41.73619079589844 L 103.3844528198242 35.05052185058594 C 103.3844528198242 33.20432281494141 101.8878173828125 31.70768356323242 100.0416259765625 31.70768356323242 C 98.19541931152344 31.70768356323242 96.69878387451172 33.20432281494141 96.69878387451172 35.05052185058594 L 96.69878387451172 41.73619079589844 C 96.69878387451172 42.19770050048828 96.32457733154297 42.57190322875977 95.86306762695312 42.57190322875977 L 93.35594940185547 42.57190322875977 C 90.13545227050781 42.57190322875977 87.50597381591797 39.99238204956055 87.50597381591797 36.78737258911133 L 87.50597381591797 28.46990203857422 C 87.50597381591797 26.69046401977539 88.33385467529297 25.0130729675293 89.74597930908203 23.9181022644043 L 96.43154907226562 18.73336410522461 C 97.49129486083984 17.91145324707031 98.76634979248047 17.50049591064453 100.0414505004883 17.50049591064453 Z" stroke="none" fill="#fff"/>
  </g>
</svg>
