<svg id="Group_12916" data-name="Group 12916" xmlns="http://www.w3.org/2000/svg" width="20" height="20" viewBox="0 0 20 20">
  <path id="Path_6226" data-name="Path 6226" d="M12.829,4.083a1.814,1.814,0,0,0-1.917,1.837V6.8A3.648,3.648,0,0,1,8.6,10.3a1.611,1.611,0,0,1-.437.113A1.458,1.458,0,0,0,6.708,9.046H5.458A1.46,1.46,0,0,0,4,10.5v8.75a1.46,1.46,0,0,0,1.458,1.458h1.25A1.457,1.457,0,0,0,8.158,19.4a11.275,11.275,0,0,1,2.242.487l.5.142a16.409,16.409,0,0,0,4.621.688c1.821,0,3.075-.171,3.817-1.142a4.137,4.137,0,0,0,.679-1.708c.125-.592.221-1.308.333-2.15l.042-.325a8.751,8.751,0,0,0-.187-4.5A2.368,2.368,0,0,0,19.079,9.7a3.721,3.721,0,0,0-1.7-.337H15.675L15.721,9q.031-.225.062-.475a10.5,10.5,0,0,0,.1-1.2,3.285,3.285,0,0,0-.767-2.45A3.479,3.479,0,0,0,12.829,4.083ZM8.167,18.146a12.086,12.086,0,0,1,2.6.542l.471.133a15.14,15.14,0,0,0,4.287.642c1.9,0,2.5-.229,2.825-.65A3.064,3.064,0,0,0,18.8,17.6c.112-.542.2-1.208.313-2.062l.042-.321a7.751,7.751,0,0,0-.083-3.812,1.147,1.147,0,0,0-.55-.592,2.527,2.527,0,0,0-1.137-.2H15.408A1,1,0,0,1,14.4,9.5c.021-.2.054-.446.088-.7l.058-.437a9.182,9.182,0,0,0,.088-1.042c0-.937-.179-1.346-.4-1.562a2.325,2.325,0,0,0-1.5-.438.568.568,0,0,0-.579.592V6.8A4.9,4.9,0,0,1,9.1,11.446a2.972,2.972,0,0,1-.929.217ZM5.458,19.462a.206.206,0,0,1-.208-.208V10.5a.206.206,0,0,1,.208-.208h1.25a.206.206,0,0,1,.208.208v8.75a.206.206,0,0,1-.208.208Z" transform="translate(-2.333 -2.379)" fill="#727272" fill-rule="evenodd"/>
  <path id="Path_6227" data-name="Path 6227" d="M0,0H20V20H0Z" fill="none"/>
</svg>
