<svg xmlns="http://www.w3.org/2000/svg" width="17.244" height="17.244" viewBox="0 0 17.244 17.244">
  <path id="Icon_awesome-linkedin" data-name="Icon awesome-linkedin" d="M16.012,2.25H1.228A1.237,1.237,0,0,0,0,3.493V18.25a1.237,1.237,0,0,0,1.228,1.243H16.012a1.24,1.24,0,0,0,1.232-1.243V3.493A1.24,1.24,0,0,0,16.012,2.25ZM5.212,17.03H2.656V8.8h2.56V17.03ZM3.934,7.677A1.482,1.482,0,1,1,5.416,6.2,1.483,1.483,0,0,1,3.934,7.677ZM14.792,17.03H12.236v-4c0-.955-.019-2.182-1.328-2.182-1.332,0-1.536,1.039-1.536,2.113V17.03H6.817V8.8H9.268V9.925H9.3A2.692,2.692,0,0,1,11.724,8.6c2.587,0,3.068,1.705,3.068,3.922Z" transform="translate(0 -2.25)" fill="#fff"/>
</svg>
