<svg xmlns="http://www.w3.org/2000/svg" width="24" height="25.226" viewBox="0 0 33 29.367">
  <g id="Group_12889" data-name="Group 12889" transform="translate(0)">
    <path id="Path_6206" data-name="Path 6206" d="M50.062,375.616a.522.522,0,0,0-.2.338.513.513,0,0,0,.1.386.4.4,0,0,0,.026.031,1.386,1.386,0,0,0,1.008.51,1.1,1.1,0,0,0,.722-.279,1.049,1.049,0,0,0,.266-1.4C51.732,374.9,51.191,374.723,50.062,375.616Zm1.052.433a.289.289,0,0,1-.266-.013,1.829,1.829,0,0,1,.483-.254.483.483,0,0,1-.218.267Z" transform="translate(-47.184 -352.294)" fill="#fff"/>
    <path id="Path_6207" data-name="Path 6207" d="M185.435,234.519a1.2,1.2,0,0,0-1.188,0,1.1,1.1,0,0,0,0,1.864,1.2,1.2,0,0,0,1.188,0,1.1,1.1,0,0,0,0-1.864Zm-.291.938a.237.237,0,0,1-.115.232.4.4,0,0,1-.377,0,.237.237,0,0,1-.115-.232v-.012a.237.237,0,0,1,.115-.231.4.4,0,0,1,.377,0,.237.237,0,0,1,.115.231S185.145,235.453,185.145,235.457Z" transform="translate(-172.079 -221.129)" fill="#fff"/>
    <path id="Path_6208" data-name="Path 6208" d="M41.885,48.884a15.71,15.71,0,0,0-6.436-.3,7.434,7.434,0,0,1-4.4-.44,3.019,3.019,0,0,1-.822-.625,6.693,6.693,0,0,0,2.393-2.551,8.119,8.119,0,0,0,.23-6.212.4.4,0,0,0-.767.064c-.872,4.043-2.147,5.48-3.294,6.1a4,4,0,0,0-2.965-.88,1.253,1.253,0,0,1-.586-.089,4.48,4.48,0,0,0-3.127-.237c-.481-.366-2.025-1.924-.742-6.131a.4.4,0,0,0-.582-.468,5.523,5.523,0,0,0-2.435,3.28,7.01,7.01,0,0,0,1.168,5.374c-.249.325-.472.651-.677.949a7.242,7.242,0,0,1-.86,1.116,9.345,9.345,0,0,0-2.368,3.857,12.452,12.452,0,0,1-4.345,5.991,3.157,3.157,0,0,0-1.026,3.9c.335,1.025,1.3,1.2,2.16,1.351a3.658,3.658,0,0,1,1.306.4,1.933,1.933,0,0,0,1.071.312,2.658,2.658,0,0,0,1.065-.24,4.078,4.078,0,0,0,1.515-1.189,13.216,13.216,0,0,1,4.524-2.023l.76-.2a1.828,1.828,0,0,1,.692-.046A14.912,14.912,0,0,1,29.39,62.44a5.307,5.307,0,0,1,1.884,2.938,1.381,1.381,0,0,0,1.155,1.038,1.489,1.489,0,0,0,.218.016,1.393,1.393,0,0,0,1.2-.685l8.915-14.76a1.4,1.4,0,0,0,.093-1.278A1.455,1.455,0,0,0,41.885,48.884Zm-9.413-8.31a6.653,6.653,0,0,1-.569,4.033c-.858,1.642-2.537,2.8-4.994,3.449a2.424,2.424,0,0,1-.111-1.493c.1-.191.387-.271.876-.4C28.985,45.834,31.1,45.3,32.472,40.574ZM19.129,40.6a4.547,4.547,0,0,1,1.158-2.052c-.676,3.215.329,4.832,1.022,5.527a5.54,5.54,0,0,0-1.243,1.037A6.092,6.092,0,0,1,19.129,40.6ZM13.881,62.5a5.182,5.182,0,0,0-1.335-.364c-.69-.123-1.165-.226-1.41-.56a1.228,1.228,0,0,1,.562-.944.4.4,0,1,0-.417-.689,2.189,2.189,0,0,0-.491.434,2.133,2.133,0,0,1,.861-1.97,5.6,5.6,0,0,0,2.067,1.01c.773.26,1.649.556,1.729.978C15.493,60.644,15.342,61.237,13.881,62.5Zm7.772-3.087a18.417,18.417,0,0,0-3.475,1.314,5,5,0,0,0,.208-.806.412.412,0,0,0-.28-.468.4.4,0,0,0-.511.32,3.877,3.877,0,0,1-2.072,2.886,1.806,1.806,0,0,1-.8.168c1.175-1.076,1.645-1.886,1.514-2.582-.167-.885-1.232-1.244-2.262-1.591a5.659,5.659,0,0,1-1.7-.769,13.076,13.076,0,0,0,4.092-5.906,8.57,8.57,0,0,1,2.168-3.562,7.654,7.654,0,0,0,.974-1.248c1.117-1.628,2.507-3.655,5.429-2.476a2.062,2.062,0,0,0,.964.144,3.348,3.348,0,0,1,2.012.429c-.152.045-.3.082-.436.117a1.929,1.929,0,0,0-1.383.788c-.3.539-.214,1.383.284,2.909l.247,1.378a5.588,5.588,0,0,0,.937,2.243c.437.613.989,1.293,1.522,1.95a18.815,18.815,0,0,1,1.549,2.062q.032.128.068.251l0,.009a4.549,4.549,0,0,0,.491,1.11,10.213,10.213,0,0,1-2.6-1.753c-1.57-1.423-2.311-2.881-2.032-4a.4.4,0,0,0-.341-.5.415.415,0,0,0-.446.326,4.212,4.212,0,0,0,1.034,3.42C25.941,58.131,23.95,58.729,21.653,59.417Zm5.719-9.343a3.123,3.123,0,0,1,.89,1.357,2.176,2.176,0,0,0,.593,1.141A6.844,6.844,0,0,1,29.994,54.5l-.286-.353c-.526-.647-1.07-1.316-1.492-1.909a4.778,4.778,0,0,1-.8-1.918Zm14.7.5-8.915,14.76a.6.6,0,0,1-.615.288.581.581,0,0,1-.493-.441,6.093,6.093,0,0,0-2.167-3.372,15.8,15.8,0,0,0-5.521-2.483,5.549,5.549,0,0,0,3.04-3.038,11.111,11.111,0,0,0,.861.83,11.613,11.613,0,0,0,2.309,1.57,3.583,3.583,0,0,0,1.486.461,1.028,1.028,0,0,0,.317-.045.432.432,0,0,0,.261-.208.4.4,0,0,0-.111-.5,3.141,3.141,0,0,1-1.04-1.6l-.112-.431a8.97,8.97,0,0,0-1.893-4.292c-.268-.335-.4-.506-.422-.726-.1-.956-1.381-2.117-1.871-2.53a11.714,11.714,0,0,0,2.325-.882c.546.681,2.161,2.047,6.055,1.452a14.894,14.894,0,0,1,6.125.282.63.63,0,0,1,.423.36A.6.6,0,0,1,42.077,50.572Z" transform="translate(-9.971 -37.064)" fill="#fff"/>
  </g>
</svg>
