<svg xmlns="http://www.w3.org/2000/svg" width="40.826" height="46.334" viewBox="0 0 40.826 46.334">
  <g id="noun-credit-approval-6161044" transform="translate(111.795 147.047)">
    <path id="Path_6297" data-name="Path 6297" d="M32.66,30.6a.613.613,0,0,1-1.227,0,1.578,1.578,0,0,0-1.087-1.539,2.447,2.447,0,0,0-1.64,0A1.579,1.579,0,0,0,27.619,30.6c0,1.269,1.015,1.49,2.032,1.712,1.5.328,3.01.657,3.01,2.924a2.752,2.752,0,0,1-1.892,2.689,3.506,3.506,0,0,1-.628.167v.871a.613.613,0,1,1-1.227,0v-.871a3.512,3.512,0,0,1-.629-.167,2.752,2.752,0,0,1-1.892-2.689.613.613,0,1,1,1.227,0,1.578,1.578,0,0,0,1.087,1.539,2.447,2.447,0,0,0,1.64,0,1.577,1.577,0,0,0,1.087-1.539c0-1.281-1.022-1.5-2.041-1.726-1.5-.328-3-.655-3-2.91a2.752,2.752,0,0,1,1.892-2.689,3.513,3.513,0,0,1,.629-.167v-.868a.613.613,0,0,1,1.227,0v.868a3.506,3.506,0,0,1,.628.167A2.752,2.752,0,0,1,32.661,30.6ZM5.2,43.134l7.851,12.408,4.265-2.7-.433-.685-.022-.034L9.47,40.435Zm11.967-2.472,2.108-.73a4.012,4.012,0,0,1,2.711-.014L33.1,43.637a1.632,1.632,0,0,1,1.036,2.013l0,.009a2.229,2.229,0,0,1-.946.971,1.436,1.436,0,0,1-1.118.084L23.955,44a.611.611,0,1,0-.388,1.159l8.113,2.717a2.635,2.635,0,0,0,2.052-.146,3.473,3.473,0,0,0,1.515-1.569.636.636,0,0,0,.033-.08h0a2.829,2.829,0,0,0,.137-1.153L43.59,40.69a1.761,1.761,0,0,1,1.277-.141,1.568,1.568,0,0,1,.956.742,1.628,1.628,0,0,1-.613,2.21l-.031.019L31.739,51.279l-.028.018h0a4.042,4.042,0,0,1-2.882.629L18.743,50.469a.607.607,0,0,0-.412.087l-.738.43L12.16,42.4l4.911-1.7a.6.6,0,0,0,.1-.035ZM35.687,19.016H24.1a.845.845,0,1,0,0,1.689H35.687a.845.845,0,0,0,0-1.689Zm.323,2.89a28.439,28.439,0,0,1,5.842,9.8c1.165,3.329,1.51,6.457.521,8.241l-7.333,3.8a2.836,2.836,0,0,0-1.554-1.265L22.38,38.759a5.239,5.239,0,0,0-3.5.018l-1.631.568c-.779-2-.4-4.768.654-7.634a28.985,28.985,0,0,1,6.19-9.777H35.681A2.015,2.015,0,0,0,36,21.908ZM25.08,17.789h9.785A18.137,18.137,0,0,0,36.682,14.4a13.017,13.017,0,0,0,.86-3.074,12.519,12.519,0,0,1-1.4-.868A4.934,4.934,0,0,0,34.11,9.43a2.917,2.917,0,0,0-1.581.877,3.7,3.7,0,0,1-2.385,1.155,5.538,5.538,0,0,1-2.686-1.233,4.921,4.921,0,0,0-2.03-1.022,2.914,2.914,0,0,0-1.58.877,5.294,5.294,0,0,1-1.63,1.04,10.563,10.563,0,0,0,.8,3.006,17.715,17.715,0,0,0,2.066,3.657Z" transform="translate(-117 -156.254)" fill="#fff" fill-rule="evenodd"/>
  </g>
</svg>
