<svg xmlns="http://www.w3.org/2000/svg" width="19.988" height="20" viewBox="0 0 19.988 20">
  <g id="vuesax_bold_logout" data-name="vuesax/bold/logout" transform="translate(-750.003 -446)">
    <g id="logout">
      <g id="Vector" transform="translate(757 446)" fill="#fff">
        <path d="M 7.789999961853027 19.5 L 5.199999809265137 19.5 C 3.765399932861328 19.5 2.573640108108521 19.06653022766113 1.753550052642822 18.24645042419434 C 0.9334700107574463 17.42635917663574 0.5 16.23460006713867 0.5 14.80000019073486 L 0.5 11.25 L 6.25 11.25 C 6.939249992370605 11.25 7.5 10.68924999237061 7.5 10 C 7.5 9.310750007629395 6.939249992370605 8.75 6.25 8.75 L 0.5 8.75 L 0.5 5.199999809265137 C 0.5 3.765399932861328 0.9334700107574463 2.573640108108521 1.753550052642822 1.753550052642822 C 2.573640108108521 0.9334700107574463 3.765399932861328 0.5 5.199999809265137 0.5 L 7.800000190734863 0.5 C 9.236339569091797 0.5 10.42838954925537 0.9341899752616882 11.24726963043213 1.755630016326904 C 12.0647497177124 2.575670003890991 12.49448013305664 3.766170024871826 12.48999977111816 5.198440074920654 L 12.48999977111816 14.80000019073486 C 12.48999977111816 16.23460006713867 12.0565299987793 17.42635917663574 11.2364501953125 18.24645042419434 C 10.41635990142822 19.06653022766113 9.224599838256836 19.5 7.789999961853027 19.5 Z" stroke="none"/>
        <path d="M 5.199999809265137 1 C 3.900890350341797 1 2.831379890441895 1.382829666137695 2.107110023498535 2.107109069824219 C 1.382829666137695 2.831380844116211 1 3.900890350341797 1 5.199999809265137 L 1 8.25 L 6.25 8.25 C 7.214950084686279 8.25 8 9.035050392150879 8 10 C 8 10.96494960784912 7.214950084686279 11.75 6.25 11.75 L 1 11.75 L 1 14.80000019073486 C 1 16.0991096496582 1.382829666137695 17.16862106323242 2.107110023498535 17.89289093017578 C 2.831379890441895 18.6171703338623 3.900890350341797 19 5.199999809265137 19 L 7.789999961853027 19 C 9.089109420776367 19 10.15861988067627 18.6171703338623 10.88288974761963 17.89289093017578 C 11.60717010498047 17.16862106323242 11.98999977111816 16.0991096496582 11.98999977111816 14.80000019073486 L 11.98999977111816 5.196880340576172 C 11.99406051635742 3.900400161743164 11.61476993560791 2.832500457763672 10.89315986633301 2.10862922668457 C 10.17014980316162 1.383359909057617 9.100560188293457 1 7.800000190734863 1 L 5.199999809265137 1 M 5.199999809265137 0 L 7.800000190734863 0 C 11 0 13 2 12.98999977111816 5.199999809265137 L 12.98999977111816 14.80000019073486 C 12.98999977111816 18 10.98999977111816 20 7.789999961853027 20 L 5.199999809265137 20 C 2 20 0 18 0 14.80000019073486 L 0 10.75 L 6.25 10.75 C 6.659999847412109 10.75 7 10.40999984741211 7 10 C 7 9.590000152587891 6.659999847412109 9.25 6.25 9.25 L 0 9.25 L 0 5.199999809265137 C 0 2 2 0 5.199999809265137 0 Z" stroke="none" fill="#707070"/>
      </g>
      <path id="Vector-2" data-name="Vector" d="M2.557,3.348l2.07-2.07a.742.742,0,0,0,.22-.53.725.725,0,0,0-.22-.53.754.754,0,0,0-1.06,0L.218,3.568a.754.754,0,0,0,0,1.06l3.35,3.35a.75.75,0,0,0,1.06-1.06l-2.07-2.07H7v-1.5Z" transform="translate(750.003 451.902)" fill="#727272"/>
    </g>
  </g>
</svg>
