<svg xmlns="http://www.w3.org/2000/svg" width="24" height="24" viewBox="0 0 24 24">
  <g id="vuesax_bold_home-trend-up" data-name="vuesax/bold/home-trend-up" transform="translate(-428 -188)">
    <g id="home-trend-up">
      <path id="Vector" d="M18.05,4.818,12.29.788A4.853,4.853,0,0,0,6.8.918L1.79,4.828A5.153,5.153,0,0,0,0,8.468v6.9A4.631,4.631,0,0,0,4.62,20H15.4a4.622,4.622,0,0,0,4.62-4.62V8.6A5.1,5.1,0,0,0,18.05,4.818ZM14.89,11.4a.7.7,0,1,1-1.4,0v-.18l-2.72,2.72a.681.681,0,0,1-1.06-.11l-1.02-1.52-2.38,2.38a.672.672,0,0,1-.49.2.7.7,0,0,1-.49-.2.706.706,0,0,1,0-.99l2.98-2.98a.688.688,0,0,1,.56-.2.665.665,0,0,1,.51.31l1.02,1.52,2.11-2.11h-.18a.7.7,0,0,1,0-1.4h1.86a.857.857,0,0,1,.27.05.707.707,0,0,1,.38.38.646.646,0,0,1,.05.27Z" transform="translate(429.99 190.002)" fill="#fff"/>
      <path id="Vector-2" data-name="Vector" d="M0,0H24V24H0Z" transform="translate(452 212) rotate(180)" fill="none" opacity="0"/>
    </g>
  </g>
</svg>
