<svg xmlns="http://www.w3.org/2000/svg" width="20.3" height="19.889" viewBox="0 0 20.3 19.889">
  <path id="Path_2088" data-name="Path 2088" d="M112.4,46.813V41.2a1.791,1.791,0,0,0-1.783-1.783h-5.609a1.791,1.791,0,0,0-1.783,1.783v5.609a1.791,1.791,0,0,0,1.783,1.783h5.609A1.791,1.791,0,0,0,112.4,46.813Zm-8.109,0V41.2a.7.7,0,0,1,.7-.7h5.609a.7.7,0,0,1,.7.7v5.609a.7.7,0,0,1-.7.7h-5.587a.705.705,0,0,1-.717-.7Zm3.891-17.543,3.239,3.239a.538.538,0,0,1-.761.761l-2.3-2.3v6.87a.543.543,0,0,1-1.087,0v-6.87l-2.3,2.3a.546.546,0,0,1-.782-.761l3.239-3.239a.551.551,0,0,1,.761,0Zm-14-.152A1.791,1.791,0,0,0,92.4,30.9v5.609a1.791,1.791,0,0,0,1.783,1.783h5.609a1.791,1.791,0,0,0,1.783-1.783V30.9a1.791,1.791,0,0,0-1.783-1.783Zm6.326,1.783v5.609a.7.7,0,0,1-.7.7h-5.63a.687.687,0,0,1-.7-.7V30.9a.7.7,0,0,1,.7-.7h5.609a.705.705,0,0,1,.717.7ZM96.615,48.443,93.376,45.2a.538.538,0,0,1,.761-.761l2.3,2.3V39.856a.543.543,0,1,1,1.087,0v6.87l2.3-2.3a.538.538,0,0,1,.761.761l-3.217,3.261a.551.551,0,0,1-.761,0Z" transform="translate(-92.248 -28.967)" stroke="#000" stroke-width="0.3"/>
</svg>
