<svg xmlns="http://www.w3.org/2000/svg" width="30" height="30" viewBox="0 0 30 30">
  <g id="Group_12514" data-name="Group 12514" transform="translate(-33 -390)">
    <circle id="Ellipse_1594" data-name="Ellipse 1594" cx="15" cy="15" r="15" transform="translate(33 390)" fill="#fff3f4"/>
    <path id="Icon_awesome-hotjar" data-name="Icon awesome-hotjar" d="M10.012,3.9C8.21.7,2.923,0,2.923,0a3.021,3.021,0,0,1-.678,4.77C.273,6.1-.506,7.828.339,9.715a4.166,4.166,0,0,0,3.489,2.254,4.283,4.283,0,0,1-.1-3.127c1.378,2.085,3.981,0,2.674-2.266,1.713.372,1.969,3.344.654,5.2a5.365,5.365,0,0,0,3.59-3.513A6.059,6.059,0,0,0,10.012,3.9Z" transform="translate(42.999 398.571)" fill="#6a0030"/>
  </g>
</svg>
