<svg xmlns="http://www.w3.org/2000/svg" width="23.601" height="24.94" viewBox="0 0 23.601 24.94">
  <g id="Group_12525" data-name="Group 12525" transform="translate(-89 -3006)">
    <g id="Path_5997" data-name="Path 5997" transform="translate(3.969 2955.525)" fill="none">
      <path d="M107.369,53.09h-1.187v3.227a2.173,2.173,0,0,1-.753,1.639,2.225,2.225,0,0,1-1.742.522,2.269,2.269,0,0,1-1.38-.769,2.221,2.221,0,0,1-.531-1.476V53.09H91.889v3.227a2.177,2.177,0,0,1-.757,1.64,2.228,2.228,0,0,1-1.745.521,2.267,2.267,0,0,1-1.376-.769,2.22,2.22,0,0,1-.53-1.472V53.09H86.3a1.274,1.274,0,0,0-.894.368,1.246,1.246,0,0,0-.37.885V74.161a1.246,1.246,0,0,0,.37.885,1.274,1.274,0,0,0,.894.368h21.073a1.274,1.274,0,0,0,.894-.368,1.246,1.246,0,0,0,.37-.885V54.343a1.246,1.246,0,0,0-.37-.885A1.274,1.274,0,0,0,107.369,53.09ZM103.29,63.111,96.426,69.9a1.1,1.1,0,0,1-1.544,0l-3-2.968a1.126,1.126,0,0,1,.084-1.68,1.185,1.185,0,0,1,1.57.112l2.118,2.095,5.981-5.914a1.192,1.192,0,0,1,1.573-.108,1.125,1.125,0,0,1,.084,1.677Z" stroke="none"/>
      <path d="M 86.29730987548828 54.08998870849609 C 86.22519683837891 54.09014129638672 86.15513610839844 54.11865997314453 86.10539245605469 54.16796112060547 C 86.05762481689453 54.21533966064453 86.03132629394531 54.2774658203125 86.03132629394531 54.34291076660156 L 86.03132629394531 74.16134643554688 C 86.03132629394531 74.22677612304688 86.05762481689453 74.28890991210938 86.10512542724609 74.33601379394531 C 86.15514373779297 74.38559722900391 86.22518157958984 74.41412353515625 86.29519653320312 74.41426849365234 L 107.3664398193359 74.41426849365234 C 107.4385299682617 74.41412353515625 107.508544921875 74.38562774658203 107.5583724975586 74.33622741699219 C 107.6061096191406 74.28888702392578 107.6324005126953 74.22677612304688 107.6324005126953 74.16134643554688 L 107.6324005126953 54.34291076660156 C 107.6324005126953 54.27748107910156 107.6061019897461 54.21535491943359 107.5586013793945 54.16825103759766 C 107.5085754394531 54.11865997314453 107.4385223388672 54.09014129638672 107.3685302734375 54.08998870849609 L 107.181884765625 54.08998870849609 L 107.181884765625 56.31801605224609 C 107.1806106567383 57.23571014404297 106.7802658081055 58.10816192626953 106.0836029052734 58.71155548095703 C 105.4991302490234 59.21791839599609 104.749885559082 59.49678802490234 103.973876953125 59.49678802490234 C 103.8352508544922 59.49678802490234 103.6952133178711 59.48773956298828 103.5576324462891 59.46987915039062 L 103.5335998535156 59.46646881103516 C 102.7580642700195 59.34661865234375 102.0517654418945 58.95304870605469 101.5446319580078 58.35801696777344 C 101.0376205444336 57.76279449462891 100.7642822265625 57.00627899169922 100.7744369506836 56.22689819335938 L 100.7744369506836 54.08998870849609 L 92.88928985595703 54.08998870849609 L 92.88928985595703 56.31964874267578 C 92.88651275634766 57.23806762695312 92.48453521728516 58.11067199707031 91.78660583496094 58.71356201171875 C 91.20191192626953 59.21885681152344 90.45297241210938 59.49713897705078 89.67774963378906 59.49713897705078 C 89.5377197265625 59.49713897705078 89.39632415771484 59.4879150390625 89.25746154785156 59.4697265625 L 89.23233032226562 59.46611022949219 C 88.45878601074219 59.34474182128906 87.75469207763672 58.95083618164062 87.24961090087891 58.35681915283203 C 86.74433135986328 57.76229858398438 86.47183990478516 57.00727081298828 86.48184204101562 56.22981262207031 L 86.48184204101562 54.08998870849609 L 86.29730987548828 54.08998870849609 M 103.9933853149414 63.82154083251953 L 103.8741912841797 63.70174407958984 L 103.9930114746094 63.8218994140625 L 97.12784576416016 70.61068725585938 C 96.73325347900391 70.99989318847656 96.20966339111328 71.2142333984375 95.65353393554688 71.2142333984375 C 95.09732055664062 71.2142333984375 94.57369232177734 70.99989318847656 94.17816162109375 70.60978698730469 L 91.17691040039062 67.64193725585938 C 90.74558258056641 67.216064453125 90.51552581787109 66.62561798095703 90.54570007324219 66.02206420898438 C 90.57581329345703 65.41896057128906 90.86313629150391 64.85434722900391 91.33399200439453 64.47303009033203 L 91.35297393798828 64.45803070068359 C 91.73243713378906 64.16564178466797 92.20572662353516 64.00460052490234 92.68570709228516 64.00457763671875 C 92.73741149902344 64.00457763671875 92.78974151611328 64.00643920898438 92.84097290039062 64.01010131835938 C 93.37316131591797 64.04795074462891 93.87049865722656 64.27745056152344 94.24279022216797 64.65672302246094 L 95.65179443359375 66.05006408691406 L 100.9252853393555 60.83524322509766 C 101.2994079589844 60.45768737792969 101.7978515625 60.229736328125 102.3290863037109 60.1932373046875 C 102.8588714599609 60.15650939941406 103.3948440551758 60.31816101074219 103.8149566650391 60.64083862304688 L 103.8358840942383 60.65735626220703 C 104.3054733276367 61.03836822509766 104.5921020507812 61.60212707519531 104.6222763061523 62.2041015625 C 104.6524429321289 62.80625915527344 104.423225402832 63.39579010009766 103.9933853149414 63.82154083251953 M 86.29519653320312 53.08998870849609 L 87.48184204101562 53.08998870849609 L 87.48184204101562 56.23678588867188 C 87.4735107421875 56.77472686767578 87.66156005859375 57.29737091064453 88.0115966796875 57.70922088623047 C 88.36163330078125 58.12089538574219 88.85014343261719 58.39390563964844 89.38734436035156 58.47819519042969 C 90.01797485351562 58.56077575683594 90.65380859375 58.370849609375 91.13273620605469 57.95694732666016 C 91.61166381835938 57.54323577880859 91.88739013671875 56.94538879394531 91.88928985595703 56.31662750244141 L 91.88928985595703 53.08998870849609 L 101.7744369506836 53.08998870849609 L 101.7744369506836 56.23371124267578 C 101.7658996582031 56.77284240722656 101.9544906616211 57.29703521728516 102.3058929443359 57.70957946777344 C 102.6573333740234 58.12192535400391 103.1475296020508 58.39493560791016 103.6863250732422 58.47819519042969 C 104.3160705566406 58.55998229980469 104.9510650634766 58.36965942382812 105.4288024902344 57.95575714111328 C 105.9065170288086 57.54199981689453 106.1810150146484 56.94472503662109 106.181884765625 56.31662750244141 L 106.181884765625 53.08998870849609 L 107.3685302734375 53.08998870849609 C 107.7039337158203 53.0906982421875 108.0255813598633 53.22315216064453 108.2625198364258 53.45796966552734 C 108.4994812011719 53.69297027587891 108.6324005126953 54.01124572753906 108.6324005126953 54.34291076660156 L 108.6324005126953 74.16134643554688 C 108.6324005126953 74.49305725097656 108.4994812011719 74.81128692626953 108.2625198364258 75.04627990722656 C 108.0256271362305 75.28112030029297 107.7039337158203 75.41357421875 107.3685302734375 75.41426849365234 L 86.29519653320312 75.41426849365234 C 85.95979309082031 75.41357421875 85.63813018798828 75.28112030029297 85.40118408203125 75.04627990722656 C 85.16426086425781 74.81128692626953 85.03132629394531 74.49301147460938 85.03132629394531 74.16134643554688 L 85.03132629394531 54.34291076660156 C 85.03132629394531 54.01119995117188 85.16426086425781 53.69295501708984 85.40118408203125 53.45796966552734 C 85.63812255859375 53.22315216064453 85.95979309082031 53.0906982421875 86.29519653320312 53.08998870849609 Z M 103.2896728515625 63.11104583740234 C 103.5182647705078 62.88463592529297 103.6395263671875 62.57344055175781 103.6235198974609 62.254150390625 C 103.6075134277344 61.9346923828125 103.455810546875 61.63674163818359 103.2058258056641 61.43390655517578 C 102.9760284423828 61.25741577148438 102.6885299682617 61.17067718505859 102.3982696533203 61.19084167480469 C 102.1079406738281 61.21078491210938 101.8353118896484 61.33602905273438 101.6324615478516 61.54229736328125 L 95.65179443359375 67.45642852783203 L 93.53359985351562 65.36178588867188 C 93.33212280273438 65.15432739257812 93.06019592285156 65.02821350097656 92.77002716064453 65.00758361816406 C 92.48004913330078 64.98691558837891 92.192626953125 65.07347106933594 91.96334075927734 65.25015258789062 C 91.71249389648438 65.45330047607422 91.56044006347656 65.75181579589844 91.54446411132812 66.07192993164062 C 91.52845001220703 66.39204406738281 91.65022277832031 66.70396423339844 91.87950134277344 66.93034362792969 L 94.88130187988281 69.89874267578125 C 95.08625030517578 70.10087585449219 95.36387634277344 70.2142333984375 95.65353393554688 70.2142333984375 C 95.94302368164062 70.2142333984375 96.22067260742188 70.10087585449219 96.42561340332031 69.89874267578125 L 103.2898712158203 63.11084747314453 L 103.2896728515625 63.11104583740234 Z" stroke="none" fill="#fff"/>
    </g>
    <g id="Path_5998" data-name="Path 5998" transform="translate(-63.603 3006)" fill="none">
      <path d="M157.81,0h.343a1.572,1.572,0,0,1,1.463,1.463v4.86a1.463,1.463,0,0,1-1.463,1.463h-.343a1.572,1.572,0,0,1-1.463-1.463V1.463A1.463,1.463,0,0,1,157.81,0Z" stroke="none"/>
      <path d="M 157.8103637695312 0.9999990463256836 C 157.5548706054688 0.9999990463256836 157.3470001220703 1.207849025726318 157.3470001220703 1.463338851928711 L 157.3470001220703 6.323389053344727 C 157.3492126464844 6.461538791656494 157.5929107666016 6.78687858581543 157.8103637695312 6.78687858581543 L 158.1529083251953 6.78687858581543 C 158.4083862304688 6.78687858581543 158.6162261962891 6.579018592834473 158.6162261962891 6.32352876663208 L 158.6162261962891 1.463488578796387 C 158.614013671875 1.325338840484619 158.3703460693359 0.9999990463256836 158.1529083251953 0.9999990463256836 L 157.8103637695312 0.9999990463256836 M 157.8103637695312 -9.5367431640625e-07 L 158.1529083251953 -9.5367431640625e-07 C 158.9611511230469 -9.5367431640625e-07 159.6162261962891 0.8082590103149414 159.6162261962891 1.463348865509033 L 159.6162261962891 6.32352876663208 C 159.6162261962891 7.131788730621338 158.9609527587891 7.78687858581543 158.1529083251953 7.78687858581543 L 157.8103637695312 7.78687858581543 C 157.0020904541016 7.78687858581543 156.3470001220703 6.978618621826172 156.3470001220703 6.32352876663208 L 156.3470001220703 1.463338851928711 C 156.3470001220703 0.6550889015197754 157.0022735595703 -9.5367431640625e-07 157.8103637695312 -9.5367431640625e-07 Z" stroke="none" fill="#fff"/>
    </g>
    <g id="Path_5999" data-name="Path 5999" transform="translate(-371.709 3006)" fill="none">
      <path d="M478.76,0h.342a1.572,1.572,0,0,1,1.463,1.463v4.86A1.463,1.463,0,0,1,479.1,7.787h-.342A1.572,1.572,0,0,1,477.3,6.324V1.463A1.463,1.463,0,0,1,478.76,0Z" stroke="none"/>
      <path d="M 478.7604064941406 0.9999990463256836 C 478.5048828125 0.9999990463256836 478.2969665527344 1.207849025726318 478.2969665527344 1.463338851928711 L 478.2969665527344 6.323389053344727 C 478.2991943359375 6.461538791656494 478.5429382324219 6.78687858581543 478.7604064941406 6.78687858581543 L 479.1028747558594 6.78687858581543 C 479.3583984375 6.78687858581543 479.5663146972656 6.579018592834473 479.5663146972656 6.32352876663208 L 479.5663146972656 1.463488578796387 C 479.5640869140625 1.325338840484619 479.3203735351562 0.9999990463256836 479.1028747558594 0.9999990463256836 L 478.7604064941406 0.9999990463256836 M 478.7604064941406 -9.5367431640625e-07 L 479.1028747558594 -9.5367431640625e-07 C 479.9112243652344 -9.5367431640625e-07 480.5663146972656 0.8082590103149414 480.5663146972656 1.463348865509033 L 480.5663146972656 6.32352876663208 C 480.5663146972656 7.131788730621338 479.9109802246094 7.78687858581543 479.1028747558594 7.78687858581543 L 478.7604064941406 7.78687858581543 C 477.9521179199219 7.78687858581543 477.2969665527344 6.978618621826172 477.2969665527344 6.32352876663208 L 477.2969665527344 1.463338851928711 C 477.2969665527344 0.6550889015197754 477.9523010253906 -9.5367431640625e-07 478.7604064941406 -9.5367431640625e-07 Z" stroke="none" fill="#fff"/>
    </g>
  </g>
</svg>
