<svg xmlns="http://www.w3.org/2000/svg" width="18.82" height="19.887" viewBox="0 0 18.82 19.887">
  <g id="Group_11807" data-name="Group 11807" transform="translate(-89 -3006)">
    <path id="Path_5997" data-name="Path 5997" d="M102.843,53.09H101.9v2.573a1.733,1.733,0,0,1-.6,1.307,1.774,1.774,0,0,1-1.389.417,1.809,1.809,0,0,1-1.1-.613,1.771,1.771,0,0,1-.424-1.177V53.09H90.5v2.573a1.736,1.736,0,0,1-.6,1.308,1.777,1.777,0,0,1-1.392.416,1.807,1.807,0,0,1-1.1-.613,1.77,1.77,0,0,1-.422-1.174V53.09h-.946a1.016,1.016,0,0,0-.713.293.994.994,0,0,0-.295.706v15.8a.994.994,0,0,0,.295.706,1.016,1.016,0,0,0,.713.293h16.8a1.016,1.016,0,0,0,.713-.293.994.994,0,0,0,.295-.706v-15.8a.994.994,0,0,0-.295-.706A1.016,1.016,0,0,0,102.843,53.09Zm-3.252,7.991-5.474,5.413a.879.879,0,0,1-1.231,0l-2.394-2.367a.9.9,0,0,1,.067-1.34.945.945,0,0,1,1.252.089l1.689,1.67,4.769-4.716a.951.951,0,0,1,1.255-.086.9.9,0,0,1,.067,1.337Z" transform="translate(3.969 2954.996)" fill="#fff"/>
    <path id="Path_5998" data-name="Path 5998" d="M157.514,0h.273a1.254,1.254,0,0,1,1.167,1.167V5.043a1.167,1.167,0,0,1-1.167,1.167h-.273a1.254,1.254,0,0,1-1.167-1.167V1.167A1.167,1.167,0,0,1,157.514,0Z" transform="translate(-64.361 3006)" fill="#fff"/>
    <path id="Path_5999" data-name="Path 5999" d="M478.464,0h.273A1.254,1.254,0,0,1,479.9,1.167V5.043a1.167,1.167,0,0,1-1.167,1.167h-.273A1.254,1.254,0,0,1,477.3,5.043V1.167A1.167,1.167,0,0,1,478.464,0Z" transform="translate(-375.07 3006)" fill="#fff"/>
  </g>
</svg>
