<svg xmlns="http://www.w3.org/2000/svg" width="109.001" height="31.59" viewBox="0 0 109.001 31.59">
  <g id="Web-logo" transform="translate(-132 -300.41)">
    <text id="GLAD" transform="translate(170.001 323.41)" fill="#6a0030" font-size="23" font-family="Artifex CF" font-weight="700"><tspan x="0" y="0">GLAD</tspan></text>
    <g id="Group_1356" data-name="Group 1356" transform="translate(132 301.435)">
      <path id="Subtraction_5" data-name="Subtraction 5" d="M15.283,30.565a15.4,15.4,0,0,1-3.083-.311A15.277,15.277,0,0,1,.311,18.363a15.431,15.431,0,0,1,0-6.16A15.277,15.277,0,0,1,12.2.311a15.431,15.431,0,0,1,6.16,0A15.277,15.277,0,0,1,30.255,12.2a15.431,15.431,0,0,1,0,6.16A15.277,15.277,0,0,1,18.363,30.255,15.4,15.4,0,0,1,15.283,30.565Zm0-29.774A14.491,14.491,0,1,0,29.774,15.283,14.508,14.508,0,0,0,15.283.791Z" transform="translate(0 0)" fill="#f6b51d"/>
      <g id="Group_1238" data-name="Group 1238" transform="matrix(0.999, 0.035, -0.035, 0.999, 7.671, 6.911)">
        <path id="Path_1665" data-name="Path 1665" d="M6.7,0,0,6.672" transform="translate(0 0.691)" fill="none" stroke="#6a0030" stroke-linecap="round" stroke-width="1.2"/>
        <path id="Path_1666" data-name="Path 1666" d="M6.955,0,0,6.631" transform="translate(8.855 9.321)" fill="none" stroke="#6a0030" stroke-linecap="round" stroke-width="1.2"/>
        <path id="Path_1663" data-name="Path 1663" d="M11.455,0,0,11.693" transform="translate(0.151 0)" fill="none" stroke="#6a0030" stroke-linecap="round" stroke-width="1.2"/>
        <path id="Path_1664" data-name="Path 1664" d="M10.469,0,0,10.518" transform="translate(5.083 5.223)" fill="none" stroke="#6a0030" stroke-linecap="round" stroke-width="1.2"/>
        <line id="Line_3" data-name="Line 3" x1="15.527" y2="15.941" transform="translate(0.234 0.237)" fill="none" stroke="#6a0030" stroke-linecap="round" stroke-width="1.2"/>
      </g>
    </g>
    <text id="Grow_Learn_Adapt_Develop" data-name="Grow  Learn  Adapt  Develop" transform="translate(176 328.912)" font-size="2.2" font-family="Jost" font-weight="700" letter-spacing="0.39em"><tspan x="0" y="0" xml:space="preserve">GROW  LEARN  ADAPT  DEVELOP</tspan></text>
  </g>
</svg>
