<svg xmlns="http://www.w3.org/2000/svg" width="49" height="49" viewBox="0 0 49 49">
  <g id="Group_12979" data-name="Group 12979" transform="translate(-337 -1155)">
    <path id="Union_1" data-name="Union 1" d="M18.982,44.8l-6.787.939L9.657,39.333l-6.4-2.541L4.194,30,0,24.528,4.249,19l-.938-6.795,6.4-2.541L12.25,3.259l6.787.939L24.5,0l5.518,4.254,6.787-.939,2.538,6.408,6.4,2.541-.938,6.795L49,24.528l-4.3,5.414.938,6.795-6.4,2.6-2.538,6.408L29.908,44.8,24.445,49Z" transform="translate(337 1155)" fill="#12ce57"/>
    <g id="Group_9974" data-name="Group 9974" transform="matrix(0.966, -0.259, 0.259, 0.966, 345.522, 1174.917)">
      <path id="Path_5207" data-name="Path 5207" d="M2.481,10.268l0-3.423H4.236A3.265,3.265,0,0,0,7.743,3.433,3.274,3.274,0,0,0,4.239.012L.006.014,0,10.27ZM4.119,2.185a1.115,1.115,0,0,1,1.113,1.25A1.123,1.123,0,0,1,4.118,4.7H2.484V2.186Zm10.186,8.076,2.629,0L13.182.007l-2.7,0L6.7,10.266l2.659,0,.863-2.352,3.223,0ZM11.814,2.389l.993,3.378H10.891Zm5.358,7.871h2.481L19.659,0H17.178ZM23.7,2.219h1.56c1.441,0,2.168,1.428,2.167,2.931s-.73,2.888-2.17,2.889h-1.56Zm-2.5,8.039,4.055,0c2.956,0,4.651-2.191,4.652-5.108S28.215,0,25.259,0L21.2,0Z" transform="translate(0.076 3.914)" fill="#fff"/>
      <path id="Path_5205" data-name="Path 5205" d="M29.325,2.8,0,2.818l0-2.8L29.327,0Z" transform="translate(0 14.884)" fill="#fff"/>
      <path id="Path_5206" data-name="Path 5206" d="M29.325,2.8,0,2.818l0-2.8L29.327,0Z" transform="translate(0.009 0)" fill="#fff"/>
    </g>
  </g>
</svg>
