<svg xmlns="http://www.w3.org/2000/svg" width="17.12" height="22.044" viewBox="0 0 17.12 22.044">
  <g id="noun-lock-1165484" transform="translate(-119.181 -70.236)">
    <path id="Path_1106" data-name="Path 1106" d="M196.061,70.336a6.278,6.278,0,0,0-6.272,6.272v2.626a3.5,3.5,0,0,0-2.188,3.247v6.2a3.5,3.5,0,0,0,3.5,3.5h9.919a3.5,3.5,0,0,0,3.5-3.5v-6.2a3.5,3.5,0,0,0-2.188-3.244V76.611a6.278,6.278,0,0,0-6.272-6.275Zm-5.105,6.272a5.105,5.105,0,0,1,10.21,0v2.378h-10.21Zm12.4,5.873v6.2a2.334,2.334,0,0,1-2.334,2.334H191.1a2.334,2.334,0,0,1-2.334-2.334v-6.2a2.334,2.334,0,0,1,2.334-2.334h9.919a2.334,2.334,0,0,1,2.334,2.334Z" transform="translate(-68.32)" fill="#fff" stroke="#fff" stroke-width="0.2"/>
    <path id="Path_1107" data-name="Path 1107" d="M328.221,355.1a1.122,1.122,0,1,0,.794.329A1.123,1.123,0,0,0,328.221,355.1Zm-.025,1.123a.025.025,0,1,1,.049,0C328.245,356.25,328.2,356.25,328.2,356.223Z" transform="translate(-200.48 -269.822)" fill="#fff" stroke="#fff" stroke-width="0.2"/>
  </g>
</svg>
