<svg xmlns="http://www.w3.org/2000/svg" width="34" height="34" viewBox="0 0 34 34">
  <g id="Group_12863" data-name="Group 12863" transform="translate(-378 -51)">
    <circle id="Ellipse_1466" data-name="Ellipse 1466" cx="17" cy="17" r="17" transform="translate(378 51)" fill="#fff"/>
    <g id="noun-user-4771415" transform="translate(234.851 15.332)">
      <path id="Path_6018" data-name="Path 6018" d="M236.524,46.668a3.193,3.193,0,1,0,3.194,3.193A3.193,3.193,0,0,0,236.524,46.668Z" transform="translate(-76.04)" fill-rule="evenodd"/>
      <path id="Path_6019" data-name="Path 6019" d="M160.483,303.33c-2.531,0-4.159.924-5.021,2.334a2,2,0,0,0,.217,2.422,3,3,0,0,0,2.25.992h5.109a3,3,0,0,0,2.25-.992,2,2,0,0,0,.217-2.422c-.862-1.411-2.49-2.334-5.021-2.334Z" transform="translate(0 -249.637)" fill-rule="evenodd"/>
    </g>
  </g>
</svg>
