<svg xmlns="http://www.w3.org/2000/svg" width="19" height="20.751" viewBox="0 0 19 20.751">
  <path id="noun-privacy-4763275" d="M140.155,34.324a39.122,39.122,0,0,1-7.445-2.517,1.7,1.7,0,0,0-1.426,0,39.1,39.1,0,0,1-7.444,2.517,1.7,1.7,0,0,0-1.344,1.664v7.058a7.152,7.152,0,0,0,5.164,6.848,8.049,8.049,0,0,1,3.476,2.046l.178.177a.962.962,0,0,0,1.364,0l.178-.177a8.049,8.049,0,0,1,3.476-2.046,7.152,7.152,0,0,0,5.164-6.848V35.988a1.7,1.7,0,0,0-1.342-1.664Zm-4.719,6.265-3.9,3.9h0a.729.729,0,0,1-1.033,0l-1.949-1.949a.731.731,0,0,1,1.033-1.033l1.432,1.431,3.381-3.38a.731.731,0,0,1,1.033,1.033Z" transform="translate(-122.497 -31.651)" fill="#fff"/>
</svg>
