<svg xmlns="http://www.w3.org/2000/svg" width="16.742" height="20.049" viewBox="0 0 16.742 20.049">
  <g id="noun-user-4771415" transform="translate(-155.15 -46.668)">
    <path id="Path_6018" data-name="Path 6018" d="M238.342,46.668a5.012,5.012,0,1,0,5.013,5.012A5.012,5.012,0,0,0,238.342,46.668Z" transform="translate(-74.822)" fill="#fff" fill-rule="evenodd"/>
    <path id="Path_6019" data-name="Path 6019" d="M163.521,303.33c-3.973,0-6.528,1.45-7.881,3.664a3.135,3.135,0,0,0,.34,3.8,4.715,4.715,0,0,0,3.531,1.556h8.019a4.715,4.715,0,0,0,3.531-1.556,3.135,3.135,0,0,0,.34-3.8c-1.353-2.214-3.908-3.664-7.881-3.664Z" transform="translate(0 -245.635)" fill="#fff" fill-rule="evenodd"/>
  </g>
</svg>
