<svg xmlns="http://www.w3.org/2000/svg" width="343" height="463.001" viewBox="0 0 343 463.001">
  <g id="Group_12862" data-name="Group 12862" transform="translate(-85 0)">
    <path id="Subtraction_7" data-name="Subtraction 7" d="M346.5,536a242.273,242.273,0,0,1-48.469-4.886,239.181,239.181,0,0,1-86-36.188A241.2,241.2,0,0,1,124.9,389.113a239.29,239.29,0,0,1-14.014-45.144,242.276,242.276,0,0,1,6.1-120.549A241.174,241.174,0,0,1,255.043,73H397V530.689A242.073,242.073,0,0,1,346.5,536Z" transform="translate(31 -73)" fill="#ffb300" opacity="0.13"/>
    <path id="Subtraction_8" data-name="Subtraction 8" d="M120,138a51.566,51.566,0,0,1-21.8-4.813,55.823,55.823,0,0,1-17.8-13.125,61.648,61.648,0,0,1-12-19.467A65.816,65.816,0,0,1,64,76.756c0-.252,0-.506,0-.757H176c0,.253,0,.506,0,.757a65.816,65.816,0,0,1-4.4,23.839,61.648,61.648,0,0,1-12,19.467,55.824,55.824,0,0,1-17.8,13.125A51.566,51.566,0,0,1,120,138Z" transform="translate(21 -76)" fill="#f6b51d" opacity="0.4"/>
  </g>
</svg>
