<svg xmlns="http://www.w3.org/2000/svg" width="35" height="35" viewBox="0 0 35 35">
  <g id="Group_11518" data-name="Group 11518" transform="translate(-243 -936)">
    <circle id="Ellipse_244" data-name="Ellipse 244" cx="17.5" cy="17.5" r="17.5" transform="translate(243 936)" fill="#f9f9f9"/>
    <path id="Path_1120" data-name="Path 1120" d="M219.528,46.343a.778.778,0,0,0,.778-.778V44.528a.778.778,0,1,0-1.556,0v1.037A.778.778,0,0,0,219.528,46.343Z" transform="translate(27.361 904.25)" fill="#080072"/>
    <path id="Path_1121" data-name="Path 1121" d="M324.528,46.343a.778.778,0,0,0,.778-.778V44.528a.778.778,0,1,0-1.556,0v1.037A.778.778,0,0,0,324.528,46.343Z" transform="translate(-74.527 904.25)" fill="#080072"/>
    <path id="Path_1122" data-name="Path 1122" d="M429.528,46.343a.778.778,0,0,0,.778-.778V44.528a.778.778,0,1,0-1.556,0v1.037A.778.778,0,0,0,429.528,46.343Z" transform="translate(-176.417 904.25)" fill="#080072"/>
    <path id="Path_1123" data-name="Path 1123" d="M126.194,79.633v.752a2.323,2.323,0,0,1-3.889,1.726,2.3,2.3,0,0,1-3.111,0,2.323,2.323,0,0,1-3.889-1.726v-.752a1.812,1.812,0,0,0-1.556,1.789v2.333h14V81.422A1.812,1.812,0,0,0,126.194,79.633Z" transform="translate(129.25 869.43)" fill="#6a0030"/>
    <path id="Path_1124" data-name="Path 1124" d="M113.75,276.694a1.817,1.817,0,0,0,1.815,1.815h10.37a1.817,1.817,0,0,0,1.815-1.815V271.25h-14Z" transform="translate(129.25 683.491)" fill="#6a0030"/>
  </g>
</svg>
