<svg xmlns="http://www.w3.org/2000/svg" width="35" height="35" viewBox="0 0 35 35">
  <g id="Group_11546" data-name="Group 11546" transform="translate(-38 -759)">
    <circle id="Ellipse_239" data-name="Ellipse 239" cx="17.5" cy="17.5" r="17.5" transform="translate(38 759)" fill="#f9f9f9"/>
    <path id="noun-investment-2254396" d="M105,86.5v8.844h3.79V86.5Zm5.054.632v7.581h4.8l6.066-1.277a2.493,2.493,0,0,0,1.186-.575,1.79,1.79,0,0,0,.58-1.307,1.905,1.905,0,0,0-1.9-1.9h-3.855a3.168,3.168,0,0,1-3.094,2.527h-2.527V90.922h2.527a1.9,1.9,0,1,0,0-3.79h-3.79Z" transform="translate(-62.659 687.984)" fill="#6a0030"/>
    <circle id="Ellipse_1372" data-name="Ellipse 1372" cx="2.5" cy="2.5" r="2.5" transform="translate(52 769)" fill="#6a0030"/>
    <g id="Ellipse_1373" data-name="Ellipse 1373" transform="translate(49 767)" fill="#6a0030" stroke="#fff" stroke-width="1">
      <circle cx="2.5" cy="2.5" r="2.5" stroke="none"/>
      <circle cx="2.5" cy="2.5" r="3" fill="none"/>
    </g>
  </g>
</svg>
