<svg xmlns="http://www.w3.org/2000/svg" width="18.191" height="18.204" viewBox="0 0 18.191 18.204">
  <g id="noun-search-1122742" transform="translate(-200.487 -130.2)">
    <path id="Path_6024" data-name="Path 6024" d="M218.469,147.248l-3.569-3.569a8.088,8.088,0,0,0,1.938-5.3,8.175,8.175,0,1,0-16.351,0,8.044,8.044,0,0,0,2.414,5.779,8.172,8.172,0,0,0,11.082.476l3.569,3.569a.657.657,0,0,0,.952,0,.689.689,0,0,0-.034-.952Zm-5-4.045a6.853,6.853,0,1,1,1.972-4.827,6.761,6.761,0,0,1-1.972,4.827Z" transform="translate(0)" fill="#242424"/>
  </g>
</svg>
