<svg xmlns="http://www.w3.org/2000/svg" width="26.489" height="26.492" viewBox="0 0 26.489 26.492">
  <g id="Group_13104" data-name="Group 13104" transform="translate(-257.75 -773.75)">
    <g id="Group_13103" data-name="Group 13103">
      <g id="Group_11708" data-name="Group 11708" transform="translate(-3002.773 -1340)">
        <path id="Path_5943" data-name="Path 5943" d="M241.295,185.86a13,13,0,1,1,9.19-22.184,13.037,13.037,0,0,1,2.3,15.276l1.295,4.829a1.532,1.532,0,0,1-.393,1.468,1.516,1.516,0,0,1-1.47.4l-4.831-1.3a13,13,0,0,1-6.086,1.51Z" transform="translate(3032.469 1954.132)" fill="#f6b51d" stroke="#6a0030" stroke-width="0.5"/>
      </g>
      <path id="Path_6007" data-name="Path 6007" d="M316.571,222.307a5.184,5.184,0,0,0-3.053.934,1.191,1.191,0,0,0,.8,2.115c.016,0,.033-.006.049-.007a.817.817,0,0,0,.232-.043,1.137,1.137,0,0,0,.377-.183,3.6,3.6,0,0,1,1.459-.411c.924-.04,1.358.322,1.384.958.046,1.075-2.458,2.577-2.593,4.705a1.151,1.151,0,0,0,.3.68,2.936,2.936,0,0,0,.345.258,1.142,1.142,0,0,0,.558.122,1.156,1.156,0,0,0,1.038-.758.927.927,0,0,0,.031-.126c.313-1.711,3.259-2.44,3.143-5.182-.086-2-1.644-3.165-4.075-3.062Z" transform="translate(-46.027 558.364)" fill="#6a0030" stroke="#6a0030" stroke-width="0.5"/>
    </g>
    <path id="Path_6008" data-name="Path 6008" d="M334.472,319.956a1.205,1.205,0,1,1-1.205-1.205,1.205,1.205,0,0,1,1.205,1.205" transform="translate(-62.986 472.209)" fill="#6a0030" stroke="#6a0030" stroke-width="0.5"/>
  </g>
</svg>
