<svg xmlns="http://www.w3.org/2000/svg" width="31.142" height="24.517" viewBox="0 0 31.142 24.517">
  <g id="Group_12023" data-name="Group 12023" transform="translate(-334.858 -806.525)">
    <g id="noun-profit-201055" transform="translate(208.789 718.161)">
      <path id="Path_6091" data-name="Path 6091" d="M136.786,104.212v1.48c0,.768,2.075,1.627,4.854,1.627s4.855-.86,4.855-1.627v-1.48a11.179,11.179,0,0,1-9.709,0Zm0,5.561v1.479c0,.77,2.075,1.629,4.854,1.629s4.855-.859,4.855-1.629v-1.479a11.179,11.179,0,0,1-9.709,0ZM147.5,97.349c0,.769,2.075,1.629,4.854,1.629s4.855-.86,4.855-1.629-2.076-1.628-4.855-1.628S147.5,96.581,147.5,97.349Zm-21.433,12.425v1.48c0,.768,2.075,1.627,4.854,1.627s4.855-.86,4.855-1.627v-1.48a11.179,11.179,0,0,1-9.709,0Zm4.854-2.93c-2.778,0-4.854.86-4.854,1.628s2.075,1.629,4.854,1.629,4.855-.859,4.855-1.629S133.7,106.844,130.923,106.844Zm5.863.148v1.48c0,.769,2.075,1.629,4.854,1.629s4.855-.86,4.855-1.629v-1.48a11.173,11.173,0,0,1-9.709,0Zm10.717-5.561v1.48c0,.769,2.075,1.629,4.854,1.629s4.855-.86,4.855-1.629v-1.48a11.173,11.173,0,0,1-9.709,0Zm0,2.781v1.479c0,.77,2.075,1.629,4.854,1.629s4.855-.859,4.855-1.629v-1.479a11.179,11.179,0,0,1-9.709,0Zm-5.863-2.93c-2.778,0-4.854.86-4.854,1.628s2.075,1.629,4.854,1.629,4.855-.859,4.855-1.629S144.418,101.282,141.64,101.282Zm5.863-2.631v1.48c0,.768,2.075,1.628,4.854,1.628s4.855-.86,4.855-1.628v-1.48a11.175,11.175,0,0,1-9.709,0Zm0,8.341v1.48c0,.768,2.075,1.629,4.854,1.629s4.855-.86,4.855-1.629v-1.48a11.179,11.179,0,0,1-9.709,0Zm0,2.78v1.48c0,.768,2.075,1.628,4.854,1.628s4.855-.86,4.855-1.628v-1.48a11.173,11.173,0,0,1-9.709,0Z" transform="translate(0)" fill="#f6b51d"/>
    </g>
    <path id="Path_6092" data-name="Path 6092" d="M139.662,107.634l5.951,3.263,8.376-6.149.66,1.074,1.747-3.228-3.669.1.66,1.074-7.985,5.908-5.951-3.263-11.082,7.813.6.982Z" transform="translate(208.047 703.931)" fill="#f6b51d"/>
  </g>
</svg>
