<svg xmlns="http://www.w3.org/2000/svg" width="25.333" height="24.183" viewBox="0 0 25.333 24.183">
  <g id="Group_12953" data-name="Group 12953" transform="translate(-19.5 0)">
    <path id="Path_1679" data-name="Path 1679" d="M118.973,50.133a3.168,3.168,0,0,0-3.246,3.063v1.687h-3.842a2.7,2.7,0,0,0-2.683,2.689V71.628a2.7,2.7,0,0,0,2.683,2.689h19.97a2.693,2.693,0,0,0,2.68-2.689V57.572a2.693,2.693,0,0,0-2.68-2.689h-3.842V53.2a3.169,3.169,0,0,0-3.246-3.063Zm.994,2.352h3.807a1.565,1.565,0,0,1,1.643,1.463v.935h-7.095v-.935a1.566,1.566,0,0,1,1.645-1.463ZM109.791,60.3l8.876,3.364V67.2a.3.3,0,0,0,.294.294h5.817a.3.3,0,0,0,.295-.294V63.661l8.873-3.362V71.628a2.1,2.1,0,0,1-2.091,2.1h-19.97a2.1,2.1,0,0,1-2.094-2.1Zm14.693,3.586v3.023h-5.228V63.885l2.508.951h0a.3.3,0,0,0,.209,0l2.511-.952Z" transform="translate(-89.702 -50.133)" fill="#f6b51d" fill-rule="evenodd"/>
    <path id="Path_1886" data-name="Path 1886" d="M4735.938,2724l9.188,3.313v2.5h6.063v-2.5l9.188-3.312v10.563s-.375,2.063-3.812,1.938-18.875,0-18.875,0-1.625-.125-1.75-2.625S4735.938,2724,4735.938,2724Z" transform="translate(-4716 -2712.5)" fill="#f6b51d"/>
  </g>
</svg>
