<svg xmlns="http://www.w3.org/2000/svg" width="26.524" height="26.993" viewBox="0 0 26.524 26.993">
  <g id="Group_1363" data-name="Group 1363" transform="translate(-89.976 -1300)">
    <path id="Path_1676" data-name="Path 1676" d="M117.616,227.5a13.215,13.215,0,0,0-4.817.906.489.489,0,0,0-.308.4,13.56,13.56,0,0,0-.093,1.548,13.263,13.263,0,0,0,18.081,12.355.488.488,0,0,0,.308-.4,13.606,13.606,0,0,0,.093-1.548A13.278,13.278,0,0,0,117.616,227.5Z" transform="translate(-22.422 1083.379)" fill="#f6b51d"/>
    <path id="Path_1677" data-name="Path 1677" d="M399.972,228.562a.489.489,0,0,0-.325-.4,13.26,13.26,0,0,0-10.377.747.488.488,0,0,0-.11.791,14.987,14.987,0,0,1,4.749,10.89.487.487,0,0,0,.777.391,13.222,13.222,0,0,0,5.289-12.421Z" transform="translate(-283.591 1083.432)" fill="#f6b51d"/>
    <path id="Path_1678" data-name="Path 1678" d="M223.5,41.97a4.87,4.87,0,0,0,2.608.669,8.519,8.519,0,0,0,2.342-.352,6.408,6.408,0,0,0,1.321.149,3.889,3.889,0,0,0,2.476-.791,5.987,5.987,0,0,0,2.212-4.805.488.488,0,0,0-.452-.462,11.54,11.54,0,0,0-4.222.562,6.277,6.277,0,0,0-2.442-4.278.488.488,0,0,0-.664.119,11.365,11.365,0,0,0-1.807,4.131h0a6.209,6.209,0,0,0-4.51-.2.488.488,0,0,0-.276.637A10.217,10.217,0,0,0,223.5,41.97Zm9.942-4.615h.032a4.957,4.957,0,0,1-1.834,3.531,3.36,3.36,0,0,1-2.622.52,5.91,5.91,0,0,0,.772-2.258,6.9,6.9,0,0,0,.07-1.175,10.007,10.007,0,0,1,3.582-.618ZM227.179,33.8a5.488,5.488,0,0,1,1.653,3.418,6.363,6.363,0,0,1-.373,3.159,7.7,7.7,0,0,0-2.686-2.971,9.827,9.827,0,0,1,1.406-3.606Zm-2.229,4.241a6.916,6.916,0,0,1,2.93,3.389,5.3,5.3,0,0,1-3.86-.286,8.58,8.58,0,0,1-2.818-3.65h0a5.483,5.483,0,0,1,3.748.547Z" transform="translate(-124.064 1267.419)" fill="#f6b51d"/>
  </g>
</svg>
