<svg xmlns="http://www.w3.org/2000/svg" width="23.601" height="24.94" viewBox="0 0 23.601 24.94">
  <g id="Group_12924" data-name="Group 12924" transform="translate(-89 -3006)">
    <path id="Path_5997" data-name="Path 5997" d="M107.369,53.09h-1.187v3.227a2.173,2.173,0,0,1-.753,1.639,2.225,2.225,0,0,1-1.742.522,2.269,2.269,0,0,1-1.38-.769,2.221,2.221,0,0,1-.531-1.476V53.09H91.889v3.227a2.177,2.177,0,0,1-.757,1.64,2.228,2.228,0,0,1-1.745.521,2.267,2.267,0,0,1-1.376-.769,2.22,2.22,0,0,1-.53-1.472V53.09H86.3a1.274,1.274,0,0,0-.894.368,1.246,1.246,0,0,0-.37.885V74.161a1.246,1.246,0,0,0,.37.885,1.274,1.274,0,0,0,.894.368h21.073a1.274,1.274,0,0,0,.894-.368,1.246,1.246,0,0,0,.37-.885V54.343a1.246,1.246,0,0,0-.37-.885A1.274,1.274,0,0,0,107.369,53.09ZM103.29,63.111,96.426,69.9a1.1,1.1,0,0,1-1.544,0l-3-2.968a1.126,1.126,0,0,1,.084-1.68,1.185,1.185,0,0,1,1.57.112l2.118,2.095,5.981-5.914a1.192,1.192,0,0,1,1.573-.108,1.125,1.125,0,0,1,.084,1.677Z" transform="translate(3.969 2955.525)" fill="#f6b51d"/>
    <path id="Path_5998" data-name="Path 5998" d="M157.81,0h.343a1.572,1.572,0,0,1,1.463,1.463v4.86a1.463,1.463,0,0,1-1.463,1.463h-.343a1.572,1.572,0,0,1-1.463-1.463V1.463A1.463,1.463,0,0,1,157.81,0Z" transform="translate(-63.603 3006)" fill="#f6b51d"/>
    <path id="Path_5999" data-name="Path 5999" d="M478.76,0h.342a1.572,1.572,0,0,1,1.463,1.463v4.86A1.463,1.463,0,0,1,479.1,7.787h-.342A1.572,1.572,0,0,1,477.3,6.324V1.463A1.463,1.463,0,0,1,478.76,0Z" transform="translate(-371.709 3006)" fill="#f6b51d"/>
  </g>
</svg>
