<svg xmlns="http://www.w3.org/2000/svg" width="22.978" height="22.7" viewBox="0 0 22.978 22.7">
  <g id="noun-training-4301950_2_" data-name="noun-training-4301950 (2)" transform="translate(-120.918 -53.68)">
    <path id="Path_6115" data-name="Path 6115" d="M253.311,56.259v3.318a6.193,6.193,0,0,1,5.208,8.478.527.527,0,0,1-.495.335.536.536,0,0,1-.488-.725,5.273,5.273,0,0,0,.369-1.931,5.129,5.129,0,1,0-3.2,4.755.532.532,0,0,1,.39.99,6.158,6.158,0,0,1-1.785.418v4.483L264.27,73.8V53.68Zm2.217,9.935-2.475,1.485-1.764,1.06a.558.558,0,0,1-.279.077.6.6,0,0,1-.258-.07.537.537,0,0,1-.272-.46v-5.1a.537.537,0,0,1,.272-.46.546.546,0,0,1,.537.007l4.239,2.545a.533.533,0,0,1,0,.913Z" transform="translate(-120.374 0)" fill="#f6b51d"/>
    <path id="Path_6116" data-name="Path 6116" d="M126.223,65.742a6.2,6.2,0,0,1,5.654-6.163V56.268l-10.959-2.58v20.12l10.96,2.58V71.912a6.2,6.2,0,0,1-5.654-6.17Z" transform="translate(0 -0.008)" fill="#f6b51d"/>
    <path id="Path_6117" data-name="Path 6117" d="M325.4,265.282l2.677-1.61-2.677-1.6Z" transform="translate(-194.227 -197.937)" fill="#f6b51d"/>
  </g>
</svg>
