<svg xmlns="http://www.w3.org/2000/svg" width="26.934" height="24.941" viewBox="0 0 26.934 24.941">
  <g id="Group_12891" data-name="Group 12891" transform="translate(-1.844 -1.844)">
    <path id="Path_6209" data-name="Path 6209" d="M6.065,11.579a.642.642,0,0,1-1.188-.486A9.879,9.879,0,0,1,8.791,6.456a.642.642,0,1,1,.678,1.09,8.6,8.6,0,0,0-3.4,4.033Zm9.191,11.761a.642.642,0,0,1,.2,1.267,9.711,9.711,0,0,1-1.53.12,9.808,9.808,0,0,1-1.12-.064,9.674,9.674,0,0,1-3.624-1.171.642.642,0,0,1,.627-1.12,8.387,8.387,0,0,0,3.144,1.016,8.511,8.511,0,0,0,.973.056A8.424,8.424,0,0,0,15.256,23.339ZM20.627,9.568a.642.642,0,0,1,1.014-.787,9.875,9.875,0,0,1,2.067,5.659.642.642,0,0,1-1.282.053,8.591,8.591,0,0,0-1.8-4.925Z" transform="translate(1.287 1.72)" fill="#f6b51d"/>
    <path id="Path_6210" data-name="Path 6210" d="M20.17,7.008A5.466,5.466,0,1,1,14.7,1.5,5.487,5.487,0,0,1,20.17,7.008ZM28.434,20.6a5.466,5.466,0,1,1-5.466-5.508A5.487,5.487,0,0,1,28.434,20.6Zm-16,.337a5.466,5.466,0,1,1-5.466-5.508A5.487,5.487,0,0,1,12.432,20.933Z" transform="translate(0.344 0.344)" fill="#f6b51d"/>
  </g>
</svg>
