<svg xmlns="http://www.w3.org/2000/svg" width="31.524" height="27.353" viewBox="0 0 31.524 27.353">
  <g id="Group_12890" data-name="Group 12890" transform="translate(0.001)">
    <g id="noun-cow-5544124" transform="translate(-0.001 0)">
      <path id="Path_6198" data-name="Path 6198" d="M24.164,354.234c1.441-1.243,1.682-1.881,1.622-2.2-.087-.461-.944-.749-1.773-1.029a5.326,5.326,0,0,1-2.084-1.038,2.212,2.212,0,0,0-.912,2.229,2.153,2.153,0,0,1,.572-.543.335.335,0,0,1,.347.574,1.286,1.286,0,0,0-.595,1.022c.253.368.746.476,1.466.605A4.95,4.95,0,0,1,24.164,354.234Zm-1.174-1.851a.448.448,0,0,1,.173-.294c1.086-.86,1.6-.7,1.832-.423a1.007,1.007,0,0,1-.259,1.3.974.974,0,0,1-.657.264,1.412,1.412,0,0,1-.98-.49l-.022-.026a.447.447,0,0,1-.087-.336Z" transform="translate(-20.98 -329.992)" fill="#f6b51d"/>
      <path id="Path_6199" data-name="Path 6199" d="M63.221,382.395a.552.552,0,0,0,.248-.4,1.54,1.54,0,0,0-.693.343A.386.386,0,0,0,63.221,382.395Z" transform="translate(-59.973 -359.871)" fill="#f6b51d"/>
      <path id="Path_6200" data-name="Path 6200" d="M258.887,87a2.575,2.575,0,0,0,.122,1.607c2.514-.651,4.23-1.83,5.1-3.506a6.856,6.856,0,0,0,.525-4.368c-1.364,4.956-3.51,5.5-4.832,5.84C259.3,86.7,259.005,86.787,258.887,87Z" transform="translate(-242.855 -78.813)" fill="#f6b51d"/>
      <path id="Path_6201" data-name="Path 6201" d="M146.123,57.842c-.695-.659-1.809-2.309-1.019-5.752a4.672,4.672,0,0,0-1.337,2.242,6.209,6.209,0,0,0,.989,4.644A5.475,5.475,0,0,1,146.123,57.842Z" transform="translate(-135.41 -52.09)" fill="#f6b51d"/>
      <path id="Path_6202" data-name="Path 6202" d="M194.88,242a.466.466,0,0,0,.444,0,.3.3,0,0,0,.148-.29v-.01a.3.3,0,0,0-.148-.29.466.466,0,0,0-.444,0,.3.3,0,0,0-.148.29s0,.007,0,.01A.3.3,0,0,0,194.88,242Z" transform="translate(-183.077 -228.66)" fill="#f6b51d"/>
      <path id="Path_6203" data-name="Path 6203" d="M46.8,156.558c.131.693-.367,1.512-1.6,2.622a1.763,1.763,0,0,0,.982-.159,3.947,3.947,0,0,0,2.111-2.936.335.335,0,0,1,.662.11,4.948,4.948,0,0,1-.267.973,17.48,17.48,0,0,1,3.617-1.39c2.325-.7,4.339-1.3,5.214-3.911a4.152,4.152,0,0,1-1.038-3.416.335.335,0,1,1,.651.162c-.141.568-.2,2.119,2.249,4.242a9.911,9.911,0,0,0,2.625,1.679,4.349,4.349,0,0,1-.607-1.28l0-.007q-.037-.127-.07-.258a18.7,18.7,0,0,0-1.56-2.079c-.533-.656-1.085-1.335-1.52-1.946a5.52,5.52,0,0,1-.926-2.216l-.248-1.383c-.493-1.509-.577-2.338-.29-2.86.264-.481.763-.608,1.341-.755.181-.046.374-.1.577-.16a3.359,3.359,0,0,0-2.176-.518,2,2,0,0,1-.932-.139c-2.972-1.2-4.379.852-5.51,2.5a7.636,7.636,0,0,1-.964,1.237,8.624,8.624,0,0,0-2.185,3.587,13.041,13.041,0,0,1-4.13,5.928,5.222,5.222,0,0,0,1.782.834C45.645,155.375,46.645,155.712,46.8,156.558Zm6-9.749a1.143,1.143,0,0,1,1.121,0,1.036,1.036,0,0,1,0,1.749,1.143,1.143,0,0,1-1.121,0,1.036,1.036,0,0,1,0-1.749Z" transform="translate(-41.34 -134.638)" fill="#f6b51d"/>
      <path id="Path_6204" data-name="Path 6204" d="M239.079,195.577a14.946,14.946,0,0,0-6.175-.289c-3.953.6-5.528-.822-6.026-1.471a11.467,11.467,0,0,1-2.24.868l-.051.23c.537.464,1.656,1.528,1.752,2.4a1.542,1.542,0,0,0,.436.761,8.909,8.909,0,0,1,1.88,4.264q.013.062.028.122a.961.961,0,0,1,.084.307,3.223,3.223,0,0,0,1.053,1.63.355.355,0,0,1,.138.228.336.336,0,0,1-.205.356.884.884,0,0,1-.335.057c-.908,0-2.534-.948-3.763-2.011a11.059,11.059,0,0,1-.926-.9,5.561,5.561,0,0,1-3.228,3.179,15.793,15.793,0,0,1,5.689,2.517,6.028,6.028,0,0,1,2.143,3.336.646.646,0,0,0,.548.491.672.672,0,0,0,.682-.32l8.915-14.76a.674.674,0,0,0-.4-1Z" transform="translate(-208.052 -184.312)" fill="#f6b51d"/>
      <path id="Path_6205" data-name="Path 6205" d="M270.312,228.481c.2.247.383.472.547.678a7.071,7.071,0,0,0-1.3-2.338,2.126,2.126,0,0,1-.579-1.106,3.486,3.486,0,0,0-1.059-1.54l.08.449a4.845,4.845,0,0,0,.812,1.945C269.241,227.163,269.786,227.833,270.312,228.481Z" transform="translate(-251.364 -212.634)" fill="#f6b51d"/>
    </g>
  </g>
</svg>
