<svg xmlns="http://www.w3.org/2000/svg" width="31.763" height="25.996" viewBox="0 0 31.763 25.996">
  <path id="noun-bank-statement-3455683" d="M20.308,21.154A8.655,8.655,0,0,1,22.064,9.617H7.314v7.691a3.846,3.846,0,0,0,3.846,3.846Zm1.756,1.923H11.16a5.768,5.768,0,0,1-5.768-5.768V5.772A5.768,5.768,0,0,1,11.16,0h17.3a5.768,5.768,0,0,1,5.768,5.768v5.136A8.653,8.653,0,0,1,22.064,23.077ZM32.31,7.7V5.772a3.845,3.845,0,0,0-3.845-3.845H11.16A3.845,3.845,0,0,0,7.314,5.772V7.7ZM27.5,23.077a6.73,6.73,0,1,0-6.73-6.73A6.73,6.73,0,0,0,27.5,23.077ZM10.2,14.425a.961.961,0,0,1,0-1.923h5.768a.961.961,0,0,1,0,1.923Zm0,3.845a.961.961,0,0,1,0-1.923h5.768a.961.961,0,0,1,0,1.923ZM24.29,20.448l.544-3.171-2.3-2.246a.385.385,0,0,1,.213-.656l3.184-.463,1.424-2.885a.384.384,0,0,1,.69,0l1.424,2.885,3.184.463a.385.385,0,0,1,.213.656l-2.3,2.246.544,3.171a.384.384,0,0,1-.558.405l-2.847-1.5-2.848,1.5a.385.385,0,0,1-.558-.405ZM27.7,17.184l.983.517-.188-1.1.8-.776-1.1-.16-.492-1-.492,1-1.1.16.8.776-.188,1.1Z" transform="translate(-4.892 0.496)" fill="#fff" stroke="#6a0030" stroke-linecap="round" stroke-linejoin="bevel" stroke-width="1"/>
</svg>
