<svg xmlns="http://www.w3.org/2000/svg" width="25.926" height="25.743" viewBox="0 0 25.926 25.743">
  <g id="noun-surveys-5257357" transform="translate(-103.605 -35.279)">
    <path id="Path_6076" data-name="Path 6076" d="M123.681,57.535a.651.651,0,0,0-.651.651v1.538H104.9V36.581H123.03V37.8a.651.651,0,0,0,1.3,0V35.93a.651.651,0,0,0-.651-.651H104.256a.651.651,0,0,0-.651.651V60.371a.651.651,0,0,0,.651.651h19.425a.651.651,0,0,0,.651-.651V58.183a.651.651,0,0,0-.651-.651Z" fill="#fff"/>
    <path id="Path_6077" data-name="Path 6077" d="M195.711,123.974h-4.127v-4.127h4.127Zm1.3-4.775a.651.651,0,0,0-.651-.651h-5.423a.651.651,0,0,0-.651.651v5.426a.651.651,0,0,0,.651.651h5.426a.651.651,0,0,0,.651-.651V119.2Z" transform="translate(-82.12 -78.889)" fill="#fff"/>
    <path id="Path_6078" data-name="Path 6078" d="M384.44,119.2a.651.651,0,0,0,.651.651h9.851a.651.651,0,1,0,0-1.3h-9.851a.651.651,0,0,0-.651.651Z" transform="translate(-266.062 -78.892)" fill="#fff"/>
    <path id="Path_6079" data-name="Path 6079" d="M385.1,221.7a.651.651,0,0,0,0,1.3h4.926a.651.651,0,0,0,0-1.3Z" transform="translate(-266.067 -176.615)" fill="#fff"/>
    <path id="Path_6080" data-name="Path 6080" d="M195.716,313.816h-4.127v-4.127h4.127Zm.651-5.426h-5.426a.651.651,0,0,0-.651.651v5.426a.651.651,0,0,0,.651.651h5.426a.651.651,0,0,0,.651-.651v-5.426A.651.651,0,0,0,196.367,308.39Z" transform="translate(-82.125 -258.744)" fill="#fff"/>
    <path id="Path_6081" data-name="Path 6081" d="M394.934,308.39h-9.848a.651.651,0,1,0,0,1.3h9.851a.651.651,0,1,0,0-1.3Z" transform="translate(-266.057 -258.744)" fill="#fff"/>
    <path id="Path_6082" data-name="Path 6082" d="M390.018,411.54h-4.925a.651.651,0,0,0,0,1.3h4.925a.651.651,0,1,0,0-1.3Z" transform="translate(-266.064 -356.468)" fill="#fff"/>
  </g>
</svg>
