<svg xmlns="http://www.w3.org/2000/svg" width="16.21" height="16.21" viewBox="0 0 16.21 16.21">
  <g id="noun-edit-1363561" transform="translate(-152.321 -81.762)">
    <path id="Path_6034" data-name="Path 6034" d="M167.98,90.166a.583.583,0,0,0-.574.574v3.88a2.254,2.254,0,0,1-2.25,2.25H155.7a2.254,2.254,0,0,1-2.25-2.25V85.16a2.254,2.254,0,0,1,2.25-2.25h3.88a.574.574,0,0,0,0-1.148H155.7a3.381,3.381,0,0,0-3.375,3.375V94.6a3.381,3.381,0,0,0,3.375,3.375h9.46a3.381,3.381,0,0,0,3.375-3.375V90.74A.564.564,0,0,0,167.98,90.166Z" fill="#727272"/>
    <path id="Path_6035" data-name="Path 6035" d="M298.706,93.075l-.781,2.824a.58.58,0,0,0,.39.712.657.657,0,0,0,.3,0l2.824-.781a1.365,1.365,0,0,0,.253-.138l5.786-5.74a2.023,2.023,0,0,0,0-2.847,2.051,2.051,0,0,0-2.87,0l-5.74,5.74c-.069.023-.115.115-.161.23Zm6.682-5.212a.879.879,0,0,1,1.24,1.24L301.3,94.429l-1.24-1.24Zm-5.855,6.429.712.712-.987.253Z" transform="translate(-139.612 -4.562)" fill="#727272"/>
  </g>
</svg>
