<svg xmlns="http://www.w3.org/2000/svg" width="14.966" height="19.092" viewBox="0 0 14.966 19.092">
  <g id="noun-call-1511469" transform="translate(-175.788 -55.417)">
    <path id="Path_6033" data-name="Path 6033" d="M115.013,5389.745c.5-.856,1.348-.524,2.131-.073,3.131,1.8,4.107,5.524,1.525,9.984l-1.695,2.928c-2.582,4.459-6.19,5.284-9.321,3.48-.783-.451-1.583-.911-1.114-1.682l2.877-4.068c.535-.472,1.309,1.795,2.092,2.245,1.566.9,2.409.346,3.313-1.215l1.695-2.928c.9-1.561,1.077-2.762-.488-3.663-.783-.45-3.139.014-3-.684Zm0,0" transform="translate(70 -5333.2)" fill="none" stroke="#727272" stroke-linecap="round" stroke-linejoin="round" stroke-width="1.2"/>
  </g>
</svg>
