<svg xmlns="http://www.w3.org/2000/svg" width="20" height="20" viewBox="0 0 20 20">
  <path id="Icon_awesome-thumbs-up" data-name="Icon awesome-thumbs-up" d="M4.063,8.75H.938A.937.937,0,0,0,0,9.688v9.375A.937.937,0,0,0,.938,20H4.063A.937.937,0,0,0,5,19.063V9.688A.937.937,0,0,0,4.063,8.75ZM2.5,18.438a.938.938,0,1,1,.938-.938A.937.937,0,0,1,2.5,18.438ZM15,3.182c0,1.657-1.014,2.586-1.3,3.693h3.974A2.334,2.334,0,0,1,20,9.144a2.828,2.828,0,0,1-.759,1.922l0,0a3.263,3.263,0,0,1-.364,3.1,3.089,3.089,0,0,1-.64,2.92,2.074,2.074,0,0,1-.24,1.743C17.2,19.984,15.219,20,13.548,20h-.111a11.214,11.214,0,0,1-4.67-1.239,6.148,6.148,0,0,0-2.057-.632.469.469,0,0,1-.46-.469V9.31a.468.468,0,0,1,.139-.333C7.936,7.448,8.6,5.829,9.87,4.558a4.731,4.731,0,0,0,.992-2.3C11.036,1.535,11.4,0,12.188,0,13.125,0,15,.313,15,3.182Z" fill="#f6b51d"/>
</svg>
