<svg xmlns="http://www.w3.org/2000/svg" width="42" height="42" viewBox="0 0 42 42">
  <g id="Group_12745" data-name="Group 12745" transform="translate(-34 -162)">
    <circle id="Ellipse_338" data-name="Ellipse 338" cx="21" cy="21" r="21" transform="translate(34 162)" fill="#6a0030"/>
    <g id="noun-job-apply-3611587" transform="translate(-62.084 -317.608)">
      <g id="Group_1518" data-name="Group 1518" transform="translate(109.084 491.609)">
        <path id="Path_2068" data-name="Path 2068" d="M251.258,12.811a9.516,9.516,0,0,1,4.254,0v1.244h1.106V12.249c0-.772-1.088-1.164-3.233-1.164s-3.233.391-3.233,1.164v1.806h1.106Z" transform="translate(-245.584 -11.085)" fill="#fff"/>
        <path id="Path_2069" data-name="Path 2069" d="M124.015,118.48H109.754a.671.671,0,0,0-.67.671v5.942l.613.492v4.032h6.816a.868.868,0,0,1,.037-.168.965.965,0,0,1,1.207-.63c-.092-.154-.188-.316-.286-.482H110.98v-2.445c.6.1,1.309.177,2.081.236q1.73.129,3.463.14h0a.932.932,0,0,1,.4-.606.906.906,0,0,1,1.289.239c.08.116.156.231.232.346q1.13-.034,2.26-.119c.772-.059,1.486-.136,2.081-.236v2.445h-.129c.162.329.364.748.615,1.28h.8v-4.032l.613-.492v-5.942a.671.671,0,0,0-.67-.671Z" transform="translate(-109.084 -115.003)" fill="#fff"/>
        <path id="Path_2070" data-name="Path 2070" d="M354.777,348.2a1.773,1.773,0,0,1-1.36.039.552.552,0,0,0-.37.249H353a.469.469,0,0,0-.861.316c-.347-.607-.721-1.2-1.127-1.8a.552.552,0,0,0-.912.623c.629,1.158,1.744,2.962,1.744,2.962l-1.009-.487h0a.586.586,0,0,0-.594,1.007c.649.46,2.036,1.446,2.721,1.961a1.172,1.172,0,0,0,1.272.089l1.4-.775a1.173,1.173,0,0,0,.494-1.525,27.883,27.883,0,0,0-1.352-2.662Z" transform="translate(-342.19 -335.891)" fill="#fff"/>
      </g>
    </g>
  </g>
</svg>
