<svg xmlns="http://www.w3.org/2000/svg" width="24.978" height="25.226" viewBox="0 0 24.978 25.226">
  <g id="noun-training-4301950_2_" data-name="noun-training-4301950 (2)" transform="translate(-119.918 -52.417)">
    <g id="Path_6115" data-name="Path 6115" transform="translate(-120.374 0)" fill="none">
      <path d="M253.311,56.259v3.318a6.193,6.193,0,0,1,5.208,8.478.527.527,0,0,1-.495.335.536.536,0,0,1-.488-.725,5.273,5.273,0,0,0,.369-1.931,5.129,5.129,0,1,0-3.2,4.755.532.532,0,0,1,.39.99,6.158,6.158,0,0,1-1.785.418v4.483L264.27,73.8V53.68Zm2.217,9.935-2.475,1.485-1.764,1.06a.558.558,0,0,1-.279.077.6.6,0,0,1-.258-.07.537.537,0,0,1-.272-.46v-5.1a.537.537,0,0,1,.272-.46.546.546,0,0,1,.537.007l4.239,2.545a.533.533,0,0,1,0,.913Z" stroke="none"/>
      <path d="M 264.2703552246094 53.67961883544922 L 253.3111267089844 56.25945281982422 L 253.3111267089844 59.577880859375 C 255.2648620605469 59.74850463867188 257.0223388671875 60.83463287353516 258.0488891601562 62.50568389892578 C 259.0756225585938 64.17674255371094 259.2497863769531 66.23551940917969 258.5188903808594 68.05546569824219 C 258.4391479492188 68.25861358642578 258.244384765625 68.39147186279297 258.0240173339844 68.39007568359375 C 257.8502502441406 68.38597106933594 257.6894226074219 68.29780578613281 257.5924682617188 68.15382385253906 C 257.4953002929688 68.00962829589844 257.4743041992188 67.82743835449219 257.5358276367188 67.66503143310547 C 257.7789916992188 67.05009460449219 257.9043273925781 66.39500427246094 257.9053039550781 65.73378753662109 C 257.9046936035156 64.25923919677734 257.2691650390625 62.85614013671875 256.1614074707031 61.88290405273438 C 255.0534973144531 60.90964508056641 253.5802612304688 60.46049499511719 252.1177062988281 60.65007019042969 C 250.6552429199219 60.83950805664062 249.3452453613281 61.64920043945312 248.5218811035156 62.87258911132812 C 247.6984558105469 64.09603881835938 247.4414672851562 65.61467742919922 247.8166198730469 67.04084777832031 C 248.1918029785156 68.46705627441406 249.1625061035156 69.66262817382812 250.4813537597656 70.32266998291016 C 251.7999877929688 70.982666015625 253.3389282226562 71.04299926757812 254.7054748535156 70.4884033203125 C 254.9784545898438 70.38206481933594 255.2863464355469 70.51640319824219 255.3938903808594 70.78892517089844 C 255.5014953613281 71.06163024902344 255.3682556152344 71.36997985839844 255.0959167480469 71.478515625 C 254.5252380371094 71.70616149902344 253.9236145019531 71.84719848632812 253.3112487792969 71.89677429199219 L 253.3112487792969 76.37945556640625 L 264.2703552246094 73.79997253417969 L 264.2703552246094 53.67961883544922 M 251.0104064941406 68.81538391113281 C 250.9202575683594 68.81184387207031 250.8321228027344 68.78814697265625 250.7524108886719 68.74563598632812 C 250.5864562988281 68.65159606933594 250.4828186035156 68.47625732421875 250.4804992675781 68.28544616699219 L 250.4804992675781 63.18904113769531 C 250.4828186035156 62.99823760986328 250.5864562988281 62.82308959960938 250.7524108886719 62.72885894775391 C 250.9202575683594 62.63697052001953 251.1238098144531 62.63973999023438 251.2891540527344 62.73590850830078 L 255.5279846191406 65.28050994873047 C 255.6882629394531 65.37709045410156 255.7859954833984 65.55027008056641 255.7859954833984 65.73715972900391 C 255.7859954833984 65.92406463623047 255.6882629394531 66.09742736816406 255.5279846191406 66.19381713867188 L 255.5281677246094 66.19399261474609 L 251.2891540527344 68.73858642578125 C 251.2045593261719 68.78834533691406 251.1085510253906 68.81459045410156 251.0104064941406 68.81538391113281 M 265.2703552246094 52.41687774658203 L 265.2703552246094 74.5919189453125 L 252.3112487792969 77.64216613769531 L 252.3112487792969 71.84700012207031 C 251.5211791992188 71.78614044189453 250.7420043945312 71.57138061523438 250.0337829589844 71.2169189453125 C 248.4583740234375 70.428466796875 247.2977294921875 68.99908447265625 246.8495178222656 67.29525756835938 C 246.4013366699219 65.59142303466797 246.70849609375 63.77592468261719 247.6922912597656 62.31423950195312 C 248.6759033203125 60.85271453857422 250.2420959472656 59.88467407226562 251.9892272949219 59.65836334228516 C 252.0958862304688 59.64453125 252.203369140625 59.63349151611328 252.3111267089844 59.62527465820312 L 252.3111267089844 55.46752166748047 L 265.2703552246094 52.41687774658203 Z M 254.3457946777344 65.73719024658203 L 251.4804992675781 64.01712799072266 L 251.4804992675781 67.45707702636719 L 254.3457946777344 65.73719024658203 Z" stroke="none" fill="#fff"/>
    </g>
    <g id="Path_6116" data-name="Path 6116" transform="translate(0 -0.008)" fill="none">
      <path d="M126.223,65.742a6.2,6.2,0,0,1,5.654-6.163V56.268l-10.959-2.58v20.12l10.96,2.58V71.912a6.2,6.2,0,0,1-5.654-6.17Z" stroke="none"/>
      <path d="M 131.8776550292969 76.38785552978516 L 131.8774566650391 71.91222381591797 C 130.3344879150391 71.77626037597656 128.8983612060547 71.06767272949219 127.8519897460938 69.92555999755859 C 126.8054656982422 68.78359985351562 126.2244186401367 67.29124450683594 126.2234191894531 65.74221038818359 L 126.2231597900391 65.7420654296875 C 126.2255096435547 64.19423675537109 126.8071746826172 62.70337295532227 127.8534851074219 61.56283187866211 C 128.9000091552734 60.42228317260742 130.3353881835938 59.71463394165039 131.8771667480469 59.57908248901367 L 131.8771667480469 56.26772308349609 L 120.9180221557617 53.68801498413086 L 120.9180221557617 73.808349609375 L 131.8776550292969 76.38785552978516 M 132.8777160644531 77.65055084228516 L 119.9180221557617 74.60031127929688 L 119.9180221557617 52.4252815246582 L 132.8771667480469 55.47578430175781 L 132.8771667480469 60.49502182006836 L 131.9647369384766 60.57524490356445 C 130.6685485839844 60.68920516967773 129.4701385498047 61.28004455566406 128.5903015136719 62.23891448974609 C 127.7198181152344 63.18780517578125 127.2352523803711 64.41658782958984 127.2233810424805 65.70306396484375 L 127.2234191894531 65.74156188964844 C 127.2242660522461 67.0438232421875 127.7093124389648 68.28977966308594 128.5892333984375 69.24993133544922 C 129.4688873291016 70.2100830078125 130.6678161621094 70.80176544189453 131.9652252197266 70.91608428955078 L 132.8774108886719 70.9964599609375 L 132.8777160644531 77.65055084228516 Z" stroke="none" fill="#fff"/>
    </g>
    <g id="Path_6117" data-name="Path 6117" transform="translate(-194.227 -197.937)" fill="none">
      <path d="M325.4,265.282l2.677-1.61-2.677-1.6Z" stroke="none"/>
      <path d="M 325.4000244140625 265.2818298339844 L 328.0770568847656 263.6715087890625 L 325.4000244140625 262.0680236816406 L 325.4000244140625 265.2818298339844 M 324.4000244140625 267.0503234863281 L 324.4000244140625 260.3033752441406 L 330.0200805664062 263.669677734375 L 324.4000244140625 267.0503234863281 Z" stroke="none" fill="#fff"/>
    </g>
  </g>
</svg>
