<svg xmlns="http://www.w3.org/2000/svg" width="18.5" height="18.276" viewBox="0 0 18.5 18.276">
  <g id="noun-training-4301950_1_" data-name="noun-training-4301950 (1)" transform="translate(-120.918 -53.68)">
    <path id="Path_6101" data-name="Path 6101" d="M252.207,55.757v2.672a4.986,4.986,0,0,1,4.193,6.825.425.425,0,0,1-.4.269.431.431,0,0,1-.393-.584,4.246,4.246,0,0,0,.3-1.555,4.129,4.129,0,1,0-2.576,3.828.428.428,0,0,1,.314.8,4.958,4.958,0,0,1-1.437.337v3.609l8.823-2.077V53.68Zm1.785,8L252,64.951l-1.42.853a.449.449,0,0,1-.224.062.481.481,0,0,1-.208-.056.432.432,0,0,1-.219-.37v-4.1a.432.432,0,0,1,.219-.37.44.44,0,0,1,.432.006l3.413,2.049a.429.429,0,0,1,0,.735Z" transform="translate(-121.613)" fill="#fff"/>
    <path id="Path_6102" data-name="Path 6102" d="M125.189,63.393a4.989,4.989,0,0,1,4.552-4.962V55.765l-8.823-2.077v16.2l8.824,2.077v-3.6a4.99,4.99,0,0,1-4.552-4.968Z" transform="translate(0 -0.008)" fill="#fff"/>
    <path id="Path_6103" data-name="Path 6103" d="M325.4,264.655l2.155-1.3-2.155-1.291Z" transform="translate(-196.225 -199.974)" fill="#fff"/>
  </g>
</svg>
