<svg xmlns="http://www.w3.org/2000/svg" width="18" height="18" viewBox="0 0 18 18">
  <g id="Group_12951" data-name="Group 12951" transform="translate(-182 -132)">
    <g id="Group_11424" data-name="Group 11424" transform="translate(-562 -6)">
      <circle id="Ellipse_235" data-name="Ellipse 235" cx="9" cy="9" r="9" transform="translate(744 138)" fill="#12ce57"/>
    </g>
    <path id="Vector" d="M1.779,4.559a.723.723,0,0,1-.513-.213L-.787,2.293a.726.726,0,0,1,0-1.026.726.726,0,0,1,1.026,0L1.78,2.807l3.6-3.6a.726.726,0,0,1,1.026,0,.726.726,0,0,1,0,1.026L2.292,4.347A.723.723,0,0,1,1.779,4.559Z" transform="translate(188 139)" fill="#fff"/>
  </g>
</svg>
