<svg xmlns="http://www.w3.org/2000/svg" width="42" height="42" viewBox="0 0 42 42">
  <g id="Group_11457" data-name="Group 11457" transform="translate(-995 -948)">
    <circle id="Ellipse_212" data-name="Ellipse 212" cx="21" cy="21" r="21" transform="translate(995 948)" fill="#12ce57"/>
    <path id="Path_1142" data-name="Path 1142" d="M190.2,28.936a63.382,63.382,0,0,1-4.708-8.406,63.36,63.36,0,0,1-4.708,8.406c-1.033,1.753-1.9,2.81-1.9,4.948a6.6,6.6,0,0,0,13.21,0c0-2.138-.865-3.218-1.9-4.948ZM185.2,39a4.638,4.638,0,0,1-4.635-4.635,4.271,4.271,0,0,1,.625-2.306,6.188,6.188,0,0,0,7.229,5.62A4.6,4.6,0,0,1,185.2,39Z" transform="translate(830.115 938.469)" fill="#fff"/>
  </g>
</svg>
