<svg xmlns="http://www.w3.org/2000/svg" width="15" height="17.971" viewBox="0 0 15 17.971">
  <path id="Icon_zocial-youtube" data-name="Icon zocial-youtube" d="M2.681,11.959q0-.938.1-2.816A2.213,2.213,0,0,1,4.958,7.005q1.738-.087,5.232-.087t5.232.087a2.214,2.214,0,0,1,2.173,2.138q.086,1.564.087,2.816t-.087,2.816a2.213,2.213,0,0,1-2.173,2.138Q13.683,17,10.189,17t-5.232-.087a2.213,2.213,0,0,1-2.172-2.138Q2.681,12.9,2.681,11.959Zm1.164-2.45h1.06v5.667H5.931V9.508h1.06V8.553H3.845ZM4.975-.972H6.018l.66,2.642h.07L7.374-.972H8.416L7.617,1.6q-.4,1.269-.4,1.3V5.65H6.192V3.026a2.89,2.89,0,0,0-.1-.443C6.056,2.449,6,2.3,5.94,2.122s-.113-.319-.148-.435ZM6.991,14.41q0,.834.626.834a1.4,1.4,0,0,0,1.06-.608v.539h.9V10.291h-.9V14.01q-.365.365-.539.366c-.162,0-.243-.11-.243-.33V10.291h-.9ZM8.364,4.416V1.878A1.127,1.127,0,0,1,8.747.966,1.459,1.459,0,0,1,9.72.644a1.274,1.274,0,0,1,.929.348,1.227,1.227,0,0,1,.356.921v2.52a1.345,1.345,0,0,1-.348.982,1.3,1.3,0,0,1-.973.356A1.269,1.269,0,0,1,8.72,5.4,1.367,1.367,0,0,1,8.364,4.416Zm.939.122q0,.4.382.4.4,0,.4-.435V1.844a.329.329,0,0,0-.122-.261.414.414,0,0,0-.278-.1.4.4,0,0,0-.269.1.313.313,0,0,0-.113.252V4.538Zm1.165,10.637h.921v-.366a1.07,1.07,0,0,0,.87.435q.816,0,.817-1.078V11.455q0-1.233-.887-1.233a1.026,1.026,0,0,0-.8.469V8.553h-.921v6.622Zm.921-.921V11.194A.552.552,0,0,1,11.771,11q.382,0,.382.487v2.572q0,.417-.33.417A.559.559,0,0,1,11.389,14.253Zm.4-9.368V.766h.9V4.5q0,.33.243.33.226,0,.539-.365V.766h.9V5.65h-.9V5.111a1.406,1.406,0,0,1-1.061.608Q11.789,5.72,11.788,4.885ZM13.77,13.8a1.721,1.721,0,0,0,.33,1.086,1.176,1.176,0,0,0,.991.426q1.356,0,1.355-1.512v-.365h-.937c0,.023,0,.1.009.235a1.382,1.382,0,0,1-.009.287c-.011.058-.027.136-.043.235a.306.306,0,0,1-.114.208.417.417,0,0,1-.243.061q-.4,0-.4-.7v-.921h1.738V11.594a1.569,1.569,0,0,0-.322-1.043,1.211,1.211,0,0,0-.982-.382,1.3,1.3,0,0,0-1,.4,1.444,1.444,0,0,0-.374,1.025V13.8Zm.939-1.721v-.521q0-.539.4-.539t.4.539v.521Z" transform="translate(-2.681 0.972)" fill="#fff"/>
</svg>
